%TF.GenerationSoftware,KiCad,Pcbnew,(5.1.10)-1*%
%TF.CreationDate,2021-07-28T21:06:30+10:00*%
%TF.ProjectId,6502sbc,36353032-7362-4632-9e6b-696361645f70,rev?*%
%TF.SameCoordinates,Original*%
%TF.FileFunction,Legend,Bot*%
%TF.FilePolarity,Positive*%
%FSLAX46Y46*%
G04 Gerber Fmt 4.6, Leading zero omitted, Abs format (unit mm)*
G04 Created by KiCad (PCBNEW (5.1.10)-1) date 2021-07-28 21:06:30*
%MOMM*%
%LPD*%
G01*
G04 APERTURE LIST*
%ADD10C,0.120000*%
%ADD11C,0.150000*%
G04 APERTURE END LIST*
D10*
%TO.C,C13*%
X182490000Y-95603733D02*
X182490000Y-95896267D01*
X183510000Y-95603733D02*
X183510000Y-95896267D01*
%TO.C,R7*%
X210015000Y-109272936D02*
X210015000Y-109727064D01*
X211485000Y-109272936D02*
X211485000Y-109727064D01*
%TO.C,R6*%
X214735000Y-113772936D02*
X214735000Y-114227064D01*
X213265000Y-113772936D02*
X213265000Y-114227064D01*
%TO.C,C14*%
X192260000Y-105353733D02*
X192260000Y-105646267D01*
X191240000Y-105353733D02*
X191240000Y-105646267D01*
%TO.C,C12*%
X173510000Y-99103733D02*
X173510000Y-99396267D01*
X172490000Y-99103733D02*
X172490000Y-99396267D01*
%TO.C,C11*%
X192260000Y-118353733D02*
X192260000Y-118646267D01*
X191240000Y-118353733D02*
X191240000Y-118646267D01*
%TO.C,C10*%
X179010000Y-116103733D02*
X179010000Y-116396267D01*
X177990000Y-116103733D02*
X177990000Y-116396267D01*
%TO.C,C8*%
X217240000Y-196396267D02*
X217240000Y-196103733D01*
X218260000Y-196396267D02*
X218260000Y-196103733D01*
%TO.C,C7*%
X190740000Y-196646267D02*
X190740000Y-196353733D01*
X191760000Y-196646267D02*
X191760000Y-196353733D01*
%TO.C,C5*%
X245260000Y-171353733D02*
X245260000Y-171646267D01*
X244240000Y-171353733D02*
X244240000Y-171646267D01*
%TO.C,C4*%
X228146267Y-84510000D02*
X227853733Y-84510000D01*
X228146267Y-83490000D02*
X227853733Y-83490000D01*
%TO.C,C3*%
X212010000Y-149103733D02*
X212010000Y-149396267D01*
X210990000Y-149103733D02*
X210990000Y-149396267D01*
%TO.C,C13*%
D11*
X181927142Y-95107142D02*
X181974761Y-95059523D01*
X182022380Y-94916666D01*
X182022380Y-94821428D01*
X181974761Y-94678571D01*
X181879523Y-94583333D01*
X181784285Y-94535714D01*
X181593809Y-94488095D01*
X181450952Y-94488095D01*
X181260476Y-94535714D01*
X181165238Y-94583333D01*
X181070000Y-94678571D01*
X181022380Y-94821428D01*
X181022380Y-94916666D01*
X181070000Y-95059523D01*
X181117619Y-95107142D01*
X182022380Y-96059523D02*
X182022380Y-95488095D01*
X182022380Y-95773809D02*
X181022380Y-95773809D01*
X181165238Y-95678571D01*
X181260476Y-95583333D01*
X181308095Y-95488095D01*
X181022380Y-96392857D02*
X181022380Y-97011904D01*
X181403333Y-96678571D01*
X181403333Y-96821428D01*
X181450952Y-96916666D01*
X181498571Y-96964285D01*
X181593809Y-97011904D01*
X181831904Y-97011904D01*
X181927142Y-96964285D01*
X181974761Y-96916666D01*
X182022380Y-96821428D01*
X182022380Y-96535714D01*
X181974761Y-96440476D01*
X181927142Y-96392857D01*
%TO.C,R7*%
X209552380Y-109333333D02*
X209076190Y-109000000D01*
X209552380Y-108761904D02*
X208552380Y-108761904D01*
X208552380Y-109142857D01*
X208600000Y-109238095D01*
X208647619Y-109285714D01*
X208742857Y-109333333D01*
X208885714Y-109333333D01*
X208980952Y-109285714D01*
X209028571Y-109238095D01*
X209076190Y-109142857D01*
X209076190Y-108761904D01*
X208552380Y-109666666D02*
X208552380Y-110333333D01*
X209552380Y-109904761D01*
%TO.C,R6*%
X212802380Y-113833333D02*
X212326190Y-113500000D01*
X212802380Y-113261904D02*
X211802380Y-113261904D01*
X211802380Y-113642857D01*
X211850000Y-113738095D01*
X211897619Y-113785714D01*
X211992857Y-113833333D01*
X212135714Y-113833333D01*
X212230952Y-113785714D01*
X212278571Y-113738095D01*
X212326190Y-113642857D01*
X212326190Y-113261904D01*
X211802380Y-114690476D02*
X211802380Y-114500000D01*
X211850000Y-114404761D01*
X211897619Y-114357142D01*
X212040476Y-114261904D01*
X212230952Y-114214285D01*
X212611904Y-114214285D01*
X212707142Y-114261904D01*
X212754761Y-114309523D01*
X212802380Y-114404761D01*
X212802380Y-114595238D01*
X212754761Y-114690476D01*
X212707142Y-114738095D01*
X212611904Y-114785714D01*
X212373809Y-114785714D01*
X212278571Y-114738095D01*
X212230952Y-114690476D01*
X212183333Y-114595238D01*
X212183333Y-114404761D01*
X212230952Y-114309523D01*
X212278571Y-114261904D01*
X212373809Y-114214285D01*
%TO.C,C14*%
X190677142Y-104857142D02*
X190724761Y-104809523D01*
X190772380Y-104666666D01*
X190772380Y-104571428D01*
X190724761Y-104428571D01*
X190629523Y-104333333D01*
X190534285Y-104285714D01*
X190343809Y-104238095D01*
X190200952Y-104238095D01*
X190010476Y-104285714D01*
X189915238Y-104333333D01*
X189820000Y-104428571D01*
X189772380Y-104571428D01*
X189772380Y-104666666D01*
X189820000Y-104809523D01*
X189867619Y-104857142D01*
X190772380Y-105809523D02*
X190772380Y-105238095D01*
X190772380Y-105523809D02*
X189772380Y-105523809D01*
X189915238Y-105428571D01*
X190010476Y-105333333D01*
X190058095Y-105238095D01*
X190105714Y-106666666D02*
X190772380Y-106666666D01*
X189724761Y-106428571D02*
X190439047Y-106190476D01*
X190439047Y-106809523D01*
%TO.C,C12*%
X171927142Y-98607142D02*
X171974761Y-98559523D01*
X172022380Y-98416666D01*
X172022380Y-98321428D01*
X171974761Y-98178571D01*
X171879523Y-98083333D01*
X171784285Y-98035714D01*
X171593809Y-97988095D01*
X171450952Y-97988095D01*
X171260476Y-98035714D01*
X171165238Y-98083333D01*
X171070000Y-98178571D01*
X171022380Y-98321428D01*
X171022380Y-98416666D01*
X171070000Y-98559523D01*
X171117619Y-98607142D01*
X172022380Y-99559523D02*
X172022380Y-98988095D01*
X172022380Y-99273809D02*
X171022380Y-99273809D01*
X171165238Y-99178571D01*
X171260476Y-99083333D01*
X171308095Y-98988095D01*
X171117619Y-99940476D02*
X171070000Y-99988095D01*
X171022380Y-100083333D01*
X171022380Y-100321428D01*
X171070000Y-100416666D01*
X171117619Y-100464285D01*
X171212857Y-100511904D01*
X171308095Y-100511904D01*
X171450952Y-100464285D01*
X172022380Y-99892857D01*
X172022380Y-100511904D01*
%TO.C,C11*%
X190677142Y-117857142D02*
X190724761Y-117809523D01*
X190772380Y-117666666D01*
X190772380Y-117571428D01*
X190724761Y-117428571D01*
X190629523Y-117333333D01*
X190534285Y-117285714D01*
X190343809Y-117238095D01*
X190200952Y-117238095D01*
X190010476Y-117285714D01*
X189915238Y-117333333D01*
X189820000Y-117428571D01*
X189772380Y-117571428D01*
X189772380Y-117666666D01*
X189820000Y-117809523D01*
X189867619Y-117857142D01*
X190772380Y-118809523D02*
X190772380Y-118238095D01*
X190772380Y-118523809D02*
X189772380Y-118523809D01*
X189915238Y-118428571D01*
X190010476Y-118333333D01*
X190058095Y-118238095D01*
X190772380Y-119761904D02*
X190772380Y-119190476D01*
X190772380Y-119476190D02*
X189772380Y-119476190D01*
X189915238Y-119380952D01*
X190010476Y-119285714D01*
X190058095Y-119190476D01*
%TO.C,C10*%
X177427142Y-115607142D02*
X177474761Y-115559523D01*
X177522380Y-115416666D01*
X177522380Y-115321428D01*
X177474761Y-115178571D01*
X177379523Y-115083333D01*
X177284285Y-115035714D01*
X177093809Y-114988095D01*
X176950952Y-114988095D01*
X176760476Y-115035714D01*
X176665238Y-115083333D01*
X176570000Y-115178571D01*
X176522380Y-115321428D01*
X176522380Y-115416666D01*
X176570000Y-115559523D01*
X176617619Y-115607142D01*
X177522380Y-116559523D02*
X177522380Y-115988095D01*
X177522380Y-116273809D02*
X176522380Y-116273809D01*
X176665238Y-116178571D01*
X176760476Y-116083333D01*
X176808095Y-115988095D01*
X176522380Y-117178571D02*
X176522380Y-117273809D01*
X176570000Y-117369047D01*
X176617619Y-117416666D01*
X176712857Y-117464285D01*
X176903333Y-117511904D01*
X177141428Y-117511904D01*
X177331904Y-117464285D01*
X177427142Y-117416666D01*
X177474761Y-117369047D01*
X177522380Y-117273809D01*
X177522380Y-117178571D01*
X177474761Y-117083333D01*
X177427142Y-117035714D01*
X177331904Y-116988095D01*
X177141428Y-116940476D01*
X176903333Y-116940476D01*
X176712857Y-116988095D01*
X176617619Y-117035714D01*
X176570000Y-117083333D01*
X176522380Y-117178571D01*
%TO.C,C8*%
X219537142Y-196083333D02*
X219584761Y-196035714D01*
X219632380Y-195892857D01*
X219632380Y-195797619D01*
X219584761Y-195654761D01*
X219489523Y-195559523D01*
X219394285Y-195511904D01*
X219203809Y-195464285D01*
X219060952Y-195464285D01*
X218870476Y-195511904D01*
X218775238Y-195559523D01*
X218680000Y-195654761D01*
X218632380Y-195797619D01*
X218632380Y-195892857D01*
X218680000Y-196035714D01*
X218727619Y-196083333D01*
X219060952Y-196654761D02*
X219013333Y-196559523D01*
X218965714Y-196511904D01*
X218870476Y-196464285D01*
X218822857Y-196464285D01*
X218727619Y-196511904D01*
X218680000Y-196559523D01*
X218632380Y-196654761D01*
X218632380Y-196845238D01*
X218680000Y-196940476D01*
X218727619Y-196988095D01*
X218822857Y-197035714D01*
X218870476Y-197035714D01*
X218965714Y-196988095D01*
X219013333Y-196940476D01*
X219060952Y-196845238D01*
X219060952Y-196654761D01*
X219108571Y-196559523D01*
X219156190Y-196511904D01*
X219251428Y-196464285D01*
X219441904Y-196464285D01*
X219537142Y-196511904D01*
X219584761Y-196559523D01*
X219632380Y-196654761D01*
X219632380Y-196845238D01*
X219584761Y-196940476D01*
X219537142Y-196988095D01*
X219441904Y-197035714D01*
X219251428Y-197035714D01*
X219156190Y-196988095D01*
X219108571Y-196940476D01*
X219060952Y-196845238D01*
%TO.C,C7*%
X193037142Y-196333333D02*
X193084761Y-196285714D01*
X193132380Y-196142857D01*
X193132380Y-196047619D01*
X193084761Y-195904761D01*
X192989523Y-195809523D01*
X192894285Y-195761904D01*
X192703809Y-195714285D01*
X192560952Y-195714285D01*
X192370476Y-195761904D01*
X192275238Y-195809523D01*
X192180000Y-195904761D01*
X192132380Y-196047619D01*
X192132380Y-196142857D01*
X192180000Y-196285714D01*
X192227619Y-196333333D01*
X192132380Y-196666666D02*
X192132380Y-197333333D01*
X193132380Y-196904761D01*
%TO.C,C5*%
X243677142Y-171333333D02*
X243724761Y-171285714D01*
X243772380Y-171142857D01*
X243772380Y-171047619D01*
X243724761Y-170904761D01*
X243629523Y-170809523D01*
X243534285Y-170761904D01*
X243343809Y-170714285D01*
X243200952Y-170714285D01*
X243010476Y-170761904D01*
X242915238Y-170809523D01*
X242820000Y-170904761D01*
X242772380Y-171047619D01*
X242772380Y-171142857D01*
X242820000Y-171285714D01*
X242867619Y-171333333D01*
X242772380Y-172238095D02*
X242772380Y-171761904D01*
X243248571Y-171714285D01*
X243200952Y-171761904D01*
X243153333Y-171857142D01*
X243153333Y-172095238D01*
X243200952Y-172190476D01*
X243248571Y-172238095D01*
X243343809Y-172285714D01*
X243581904Y-172285714D01*
X243677142Y-172238095D01*
X243724761Y-172190476D01*
X243772380Y-172095238D01*
X243772380Y-171857142D01*
X243724761Y-171761904D01*
X243677142Y-171714285D01*
%TO.C,C4*%
X228166666Y-82927142D02*
X228214285Y-82974761D01*
X228357142Y-83022380D01*
X228452380Y-83022380D01*
X228595238Y-82974761D01*
X228690476Y-82879523D01*
X228738095Y-82784285D01*
X228785714Y-82593809D01*
X228785714Y-82450952D01*
X228738095Y-82260476D01*
X228690476Y-82165238D01*
X228595238Y-82070000D01*
X228452380Y-82022380D01*
X228357142Y-82022380D01*
X228214285Y-82070000D01*
X228166666Y-82117619D01*
X227309523Y-82355714D02*
X227309523Y-83022380D01*
X227547619Y-81974761D02*
X227785714Y-82689047D01*
X227166666Y-82689047D01*
%TO.C,C3*%
X210427142Y-149083333D02*
X210474761Y-149035714D01*
X210522380Y-148892857D01*
X210522380Y-148797619D01*
X210474761Y-148654761D01*
X210379523Y-148559523D01*
X210284285Y-148511904D01*
X210093809Y-148464285D01*
X209950952Y-148464285D01*
X209760476Y-148511904D01*
X209665238Y-148559523D01*
X209570000Y-148654761D01*
X209522380Y-148797619D01*
X209522380Y-148892857D01*
X209570000Y-149035714D01*
X209617619Y-149083333D01*
X209522380Y-149416666D02*
X209522380Y-150035714D01*
X209903333Y-149702380D01*
X209903333Y-149845238D01*
X209950952Y-149940476D01*
X209998571Y-149988095D01*
X210093809Y-150035714D01*
X210331904Y-150035714D01*
X210427142Y-149988095D01*
X210474761Y-149940476D01*
X210522380Y-149845238D01*
X210522380Y-149559523D01*
X210474761Y-149464285D01*
X210427142Y-149416666D01*
%TD*%
M02*
