%TF.GenerationSoftware,KiCad,Pcbnew,(5.1.10)-1*%
%TF.CreationDate,2021-07-28T21:06:30+10:00*%
%TF.ProjectId,6502sbc,36353032-7362-4632-9e6b-696361645f70,rev?*%
%TF.SameCoordinates,Original*%
%TF.FileFunction,Copper,L3,Inr*%
%TF.FilePolarity,Positive*%
%FSLAX46Y46*%
G04 Gerber Fmt 4.6, Leading zero omitted, Abs format (unit mm)*
G04 Created by KiCad (PCBNEW (5.1.10)-1) date 2021-07-28 21:06:30*
%MOMM*%
%LPD*%
G01*
G04 APERTURE LIST*
%TA.AperFunction,ComponentPad*%
%ADD10O,1.600000X1.600000*%
%TD*%
%TA.AperFunction,ComponentPad*%
%ADD11R,1.600000X1.600000*%
%TD*%
%TA.AperFunction,ComponentPad*%
%ADD12O,1.700000X1.700000*%
%TD*%
%TA.AperFunction,ComponentPad*%
%ADD13R,1.700000X1.700000*%
%TD*%
%TA.AperFunction,ComponentPad*%
%ADD14C,1.700000*%
%TD*%
%TA.AperFunction,ComponentPad*%
%ADD15O,2.000000X1.905000*%
%TD*%
%TA.AperFunction,ComponentPad*%
%ADD16R,2.000000X1.905000*%
%TD*%
%TA.AperFunction,ViaPad*%
%ADD17C,0.800000*%
%TD*%
%TA.AperFunction,Conductor*%
%ADD18C,0.250000*%
%TD*%
G04 APERTURE END LIST*
D10*
%TO.N,vdd*%
%TO.C,U7*%
X194990000Y-165000000D03*
%TO.N,GNDREF*%
X179750000Y-198020000D03*
%TO.N,/RW*%
X194990000Y-167540000D03*
%TO.N,/D2*%
X179750000Y-195480000D03*
%TO.N,/A13*%
X194990000Y-170080000D03*
%TO.N,/D1*%
X179750000Y-192940000D03*
%TO.N,/A8*%
X194990000Y-172620000D03*
%TO.N,/D0*%
X179750000Y-190400000D03*
%TO.N,/A9*%
X194990000Y-175160000D03*
%TO.N,/A0*%
X179750000Y-187860000D03*
%TO.N,/A11*%
X194990000Y-177700000D03*
%TO.N,/A1*%
X179750000Y-185320000D03*
%TO.N,/_A15*%
X194990000Y-180240000D03*
%TO.N,/A2*%
X179750000Y-182780000D03*
%TO.N,/A10*%
X194990000Y-182780000D03*
%TO.N,/A3*%
X179750000Y-180240000D03*
%TO.N,/_A15*%
X194990000Y-185320000D03*
%TO.N,/A4*%
X179750000Y-177700000D03*
%TO.N,/D7*%
X194990000Y-187860000D03*
%TO.N,/A5*%
X179750000Y-175160000D03*
%TO.N,/D6*%
X194990000Y-190400000D03*
%TO.N,/A6*%
X179750000Y-172620000D03*
%TO.N,/D5*%
X194990000Y-192940000D03*
%TO.N,/A7*%
X179750000Y-170080000D03*
%TO.N,/D4*%
X194990000Y-195480000D03*
%TO.N,/A12*%
X179750000Y-167540000D03*
%TO.N,/D3*%
X194990000Y-198020000D03*
D11*
%TO.N,/A14*%
X179750000Y-165000000D03*
%TD*%
D10*
%TO.N,vdd*%
%TO.C,U8*%
X221240000Y-165000000D03*
%TO.N,GNDREF*%
X206000000Y-198020000D03*
%TO.N,/RW*%
X221240000Y-167540000D03*
%TO.N,/D2*%
X206000000Y-195480000D03*
%TO.N,/A13*%
X221240000Y-170080000D03*
%TO.N,/D1*%
X206000000Y-192940000D03*
%TO.N,/A8*%
X221240000Y-172620000D03*
%TO.N,/D0*%
X206000000Y-190400000D03*
%TO.N,/A9*%
X221240000Y-175160000D03*
%TO.N,/A0*%
X206000000Y-187860000D03*
%TO.N,/A11*%
X221240000Y-177700000D03*
%TO.N,/A1*%
X206000000Y-185320000D03*
%TO.N,/A15*%
X221240000Y-180240000D03*
%TO.N,/A2*%
X206000000Y-182780000D03*
%TO.N,/A10*%
X221240000Y-182780000D03*
%TO.N,/A3*%
X206000000Y-180240000D03*
%TO.N,/A15*%
X221240000Y-185320000D03*
%TO.N,/A4*%
X206000000Y-177700000D03*
%TO.N,/D7*%
X221240000Y-187860000D03*
%TO.N,/A5*%
X206000000Y-175160000D03*
%TO.N,/D6*%
X221240000Y-190400000D03*
%TO.N,/A6*%
X206000000Y-172620000D03*
%TO.N,/D5*%
X221240000Y-192940000D03*
%TO.N,/A7*%
X206000000Y-170080000D03*
%TO.N,/D4*%
X221240000Y-195480000D03*
%TO.N,/A12*%
X206000000Y-167540000D03*
%TO.N,/D3*%
X221240000Y-198020000D03*
D11*
%TO.N,/A14*%
X206000000Y-165000000D03*
%TD*%
D12*
%TO.N,GNDREF*%
%TO.C,J8*%
X175000000Y-85080000D03*
X175000000Y-82540000D03*
D13*
X175000000Y-80000000D03*
%TD*%
D12*
%TO.N,voltage*%
%TO.C,J7*%
X161000000Y-85080000D03*
X161000000Y-82540000D03*
D13*
X161000000Y-80000000D03*
%TD*%
D12*
%TO.N,/TxD*%
%TO.C,J6*%
X265500000Y-177580000D03*
%TO.N,/RxD*%
X265500000Y-175040000D03*
D13*
%TO.N,GNDREF*%
X265500000Y-172500000D03*
%TD*%
D10*
%TO.N,/CA1*%
%TO.C,U3*%
X247240000Y-84000000D03*
%TO.N,vdd*%
X232000000Y-132260000D03*
%TO.N,/CA2*%
X247240000Y-86540000D03*
%TO.N,/CB2*%
X232000000Y-129720000D03*
%TO.N,/A0*%
X247240000Y-89080000D03*
%TO.N,/CB1*%
X232000000Y-127180000D03*
%TO.N,/A1*%
X247240000Y-91620000D03*
%TO.N,/PB7*%
X232000000Y-124640000D03*
%TO.N,/A2*%
X247240000Y-94160000D03*
%TO.N,/PB6*%
X232000000Y-122100000D03*
%TO.N,/A3*%
X247240000Y-96700000D03*
%TO.N,/PB5*%
X232000000Y-119560000D03*
%TO.N,/RES*%
X247240000Y-99240000D03*
%TO.N,/PB4*%
X232000000Y-117020000D03*
%TO.N,/D0*%
X247240000Y-101780000D03*
%TO.N,/PB3*%
X232000000Y-114480000D03*
%TO.N,/D1*%
X247240000Y-104320000D03*
%TO.N,/PB2*%
X232000000Y-111940000D03*
%TO.N,/D2*%
X247240000Y-106860000D03*
%TO.N,/PB1*%
X232000000Y-109400000D03*
%TO.N,/D3*%
X247240000Y-109400000D03*
%TO.N,/PB0*%
X232000000Y-106860000D03*
%TO.N,/D4*%
X247240000Y-111940000D03*
%TO.N,/PA7*%
X232000000Y-104320000D03*
%TO.N,/D5*%
X247240000Y-114480000D03*
%TO.N,/PA6*%
X232000000Y-101780000D03*
%TO.N,/D6*%
X247240000Y-117020000D03*
%TO.N,/PA5*%
X232000000Y-99240000D03*
%TO.N,/D7*%
X247240000Y-119560000D03*
%TO.N,/PA4*%
X232000000Y-96700000D03*
%TO.N,/CLK_PHASE2*%
X247240000Y-122100000D03*
%TO.N,/PA3*%
X232000000Y-94160000D03*
%TO.N,/DECODE*%
X247240000Y-124640000D03*
%TO.N,/PA2*%
X232000000Y-91620000D03*
%TO.N,GNDREF*%
X247240000Y-127180000D03*
%TO.N,/PA1*%
X232000000Y-89080000D03*
%TO.N,/RW*%
X247240000Y-129720000D03*
%TO.N,/PA0*%
X232000000Y-86540000D03*
%TO.N,/IRQ*%
X247240000Y-132260000D03*
D11*
%TO.N,GNDREF*%
X232000000Y-84000000D03*
%TD*%
D14*
%TO.N,/XTAL1*%
%TO.C,Y2*%
X230000000Y-157000000D03*
%TO.N,/XTAL2*%
X230000000Y-162000000D03*
%TD*%
%TO.N,Net-(R5-Pad1)*%
%TO.C,Y1*%
X159000000Y-119000000D03*
%TO.N,Net-(R19-Pad1)*%
X159000000Y-124000000D03*
%TD*%
D10*
%TO.N,/RW*%
%TO.C,U4*%
X252240000Y-145000000D03*
%TO.N,/A1*%
X237000000Y-178020000D03*
%TO.N,/CLK_PHASE2*%
X252240000Y-147540000D03*
%TO.N,/A0*%
X237000000Y-175480000D03*
%TO.N,/IRQ*%
X252240000Y-150080000D03*
%TO.N,/RxD*%
X237000000Y-172940000D03*
%TO.N,/D7*%
X252240000Y-152620000D03*
%TO.N,/DTR*%
X237000000Y-170400000D03*
%TO.N,/D6*%
X252240000Y-155160000D03*
%TO.N,/TxD*%
X237000000Y-167860000D03*
%TO.N,/D5*%
X252240000Y-157700000D03*
%TO.N,/CTS*%
X237000000Y-165320000D03*
%TO.N,/D4*%
X252240000Y-160240000D03*
%TO.N,/RTS*%
X237000000Y-162780000D03*
%TO.N,/D3*%
X252240000Y-162780000D03*
%TO.N,/XTAL2*%
X237000000Y-160240000D03*
%TO.N,/D2*%
X252240000Y-165320000D03*
%TO.N,/XTAL1*%
X237000000Y-157700000D03*
%TO.N,/D1*%
X252240000Y-167860000D03*
%TO.N,/RxC*%
X237000000Y-155160000D03*
%TO.N,/D0*%
X252240000Y-170400000D03*
%TO.N,/RES*%
X237000000Y-152620000D03*
%TO.N,/DSR*%
X252240000Y-172940000D03*
%TO.N,/DECODE*%
X237000000Y-150080000D03*
%TO.N,/DCD*%
X252240000Y-175480000D03*
%TO.N,/DECODE_EN*%
X237000000Y-147540000D03*
%TO.N,vdd*%
X252240000Y-178020000D03*
D11*
%TO.N,GNDREF*%
X237000000Y-145000000D03*
%TD*%
D10*
%TO.N,/RES*%
%TO.C,U2*%
X221240000Y-108000000D03*
%TO.N,/A11*%
X206000000Y-156260000D03*
%TO.N,/CLK_PHASE2*%
X221240000Y-110540000D03*
%TO.N,/A10*%
X206000000Y-153720000D03*
%TO.N,vdd*%
X221240000Y-113080000D03*
%TO.N,/A9*%
X206000000Y-151180000D03*
%TO.N,/CLK*%
X221240000Y-115620000D03*
%TO.N,/A8*%
X206000000Y-148640000D03*
%TO.N,N/C*%
X221240000Y-118160000D03*
%TO.N,/A7*%
X206000000Y-146100000D03*
%TO.N,N/C*%
X221240000Y-120700000D03*
%TO.N,/A6*%
X206000000Y-143560000D03*
%TO.N,/RW*%
X221240000Y-123240000D03*
%TO.N,/A5*%
X206000000Y-141020000D03*
%TO.N,/D0*%
X221240000Y-125780000D03*
%TO.N,/A4*%
X206000000Y-138480000D03*
%TO.N,/D1*%
X221240000Y-128320000D03*
%TO.N,/A3*%
X206000000Y-135940000D03*
%TO.N,/D2*%
X221240000Y-130860000D03*
%TO.N,/A2*%
X206000000Y-133400000D03*
%TO.N,/D3*%
X221240000Y-133400000D03*
%TO.N,/A1*%
X206000000Y-130860000D03*
%TO.N,/D4*%
X221240000Y-135940000D03*
%TO.N,/A0*%
X206000000Y-128320000D03*
%TO.N,/D5*%
X221240000Y-138480000D03*
%TO.N,vdd*%
X206000000Y-125780000D03*
%TO.N,/D6*%
X221240000Y-141020000D03*
%TO.N,/SYNC*%
X206000000Y-123240000D03*
%TO.N,/D7*%
X221240000Y-143560000D03*
%TO.N,/NMI*%
X206000000Y-120700000D03*
%TO.N,/A15*%
X221240000Y-146100000D03*
%TO.N,N/C*%
X206000000Y-118160000D03*
%TO.N,/A14*%
X221240000Y-148640000D03*
%TO.N,/IRQ*%
X206000000Y-115620000D03*
%TO.N,/A13*%
X221240000Y-151180000D03*
%TO.N,/CLK_PHASE1*%
X206000000Y-113080000D03*
%TO.N,/A12*%
X221240000Y-153720000D03*
%TO.N,/RDY*%
X206000000Y-110540000D03*
%TO.N,GNDREF*%
X221240000Y-156260000D03*
D11*
X206000000Y-108000000D03*
%TD*%
D15*
%TO.N,vdd*%
%TO.C,U1*%
X153750000Y-104080000D03*
%TO.N,GNDREF*%
X153750000Y-101540000D03*
D16*
%TO.N,voltage*%
X153750000Y-99000000D03*
%TD*%
D12*
%TO.N,/PB7*%
%TO.C,J3*%
X265540000Y-166100000D03*
%TO.N,/SYNC*%
X263000000Y-166100000D03*
%TO.N,/PB6*%
X265540000Y-163560000D03*
%TO.N,/RDY*%
X263000000Y-163560000D03*
%TO.N,/PB5*%
X265540000Y-161020000D03*
%TO.N,/RES*%
X263000000Y-161020000D03*
%TO.N,/PB4*%
X265540000Y-158480000D03*
%TO.N,/DCD*%
X263000000Y-158480000D03*
%TO.N,/PB3*%
X265540000Y-155940000D03*
%TO.N,/DSR*%
X263000000Y-155940000D03*
%TO.N,/PB2*%
X265540000Y-153400000D03*
%TO.N,/DTR*%
X263000000Y-153400000D03*
%TO.N,/PB1*%
X265540000Y-150860000D03*
%TO.N,/CTS*%
X263000000Y-150860000D03*
%TO.N,/PB0*%
X265540000Y-148320000D03*
%TO.N,/RTS*%
X263000000Y-148320000D03*
%TO.N,/PA7*%
X265540000Y-145780000D03*
%TO.N,/RxD*%
X263000000Y-145780000D03*
%TO.N,/PA6*%
X265540000Y-143240000D03*
%TO.N,/TxD*%
X263000000Y-143240000D03*
%TO.N,/PA5*%
X265540000Y-140700000D03*
%TO.N,/RxC*%
X263000000Y-140700000D03*
%TO.N,/PA4*%
X265540000Y-138160000D03*
%TO.N,/CB2*%
X263000000Y-138160000D03*
%TO.N,/PA3*%
X265540000Y-135620000D03*
%TO.N,/CB1*%
X263000000Y-135620000D03*
%TO.N,/PA2*%
X265540000Y-133080000D03*
%TO.N,/CA2*%
X263000000Y-133080000D03*
%TO.N,/PA1*%
X265540000Y-130540000D03*
%TO.N,/CA1*%
X263000000Y-130540000D03*
%TO.N,/PA0*%
X265540000Y-128000000D03*
D13*
%TO.N,/DECODE*%
X263000000Y-128000000D03*
%TD*%
D12*
%TO.N,GNDREF*%
%TO.C,J2*%
X201000000Y-88540000D03*
D13*
%TO.N,/LED_EN*%
X201000000Y-86000000D03*
%TD*%
D12*
%TO.N,GNDREF*%
%TO.C,J1*%
X162710000Y-162400000D03*
%TO.N,/A15*%
X165250000Y-162400000D03*
%TO.N,/RW*%
X162710000Y-164940000D03*
%TO.N,/A14*%
X165250000Y-164940000D03*
%TO.N,/NMI*%
X162710000Y-167480000D03*
%TO.N,/A13*%
X165250000Y-167480000D03*
%TO.N,/IRQ*%
X162710000Y-170020000D03*
%TO.N,/A12*%
X165250000Y-170020000D03*
%TO.N,/CLK_PHASE2*%
X162710000Y-172560000D03*
%TO.N,/A11*%
X165250000Y-172560000D03*
%TO.N,/CLK_PHASE1*%
X162710000Y-175100000D03*
%TO.N,/A10*%
X165250000Y-175100000D03*
%TO.N,/CLK*%
X162710000Y-177640000D03*
%TO.N,/A9*%
X165250000Y-177640000D03*
%TO.N,/D7*%
X162710000Y-180180000D03*
%TO.N,/A8*%
X165250000Y-180180000D03*
%TO.N,/D6*%
X162710000Y-182720000D03*
%TO.N,/A7*%
X165250000Y-182720000D03*
%TO.N,/D5*%
X162710000Y-185260000D03*
%TO.N,/A6*%
X165250000Y-185260000D03*
%TO.N,/D4*%
X162710000Y-187800000D03*
%TO.N,/A5*%
X165250000Y-187800000D03*
%TO.N,/D3*%
X162710000Y-190340000D03*
%TO.N,/A4*%
X165250000Y-190340000D03*
%TO.N,/D2*%
X162710000Y-192880000D03*
%TO.N,/A3*%
X165250000Y-192880000D03*
%TO.N,/D1*%
X162710000Y-195420000D03*
%TO.N,/A2*%
X165250000Y-195420000D03*
%TO.N,/D0*%
X162710000Y-197960000D03*
%TO.N,/A1*%
X165250000Y-197960000D03*
%TO.N,vdd*%
X162710000Y-200500000D03*
D13*
%TO.N,/A0*%
X165250000Y-200500000D03*
%TD*%
D17*
%TO.N,GNDREF*%
X164500000Y-104000000D03*
X164500000Y-98000000D03*
X168560000Y-123810000D03*
X190000000Y-88250000D03*
X185537500Y-129962500D03*
X194000000Y-129000000D03*
X173000000Y-129250000D03*
X179000000Y-129250000D03*
X262000000Y-91000000D03*
X262000000Y-86000000D03*
X209535000Y-96715000D03*
X217750000Y-84750000D03*
X152250000Y-126500000D03*
X227000000Y-151750000D03*
X195730000Y-105980000D03*
X178750000Y-99500000D03*
X170500000Y-112000000D03*
X195975000Y-120775000D03*
X187250000Y-123000000D03*
X195960000Y-117460000D03*
X187520000Y-108520000D03*
X187000000Y-94500000D03*
X168770000Y-118730000D03*
X260000000Y-119000000D03*
X262250000Y-116500000D03*
X262250000Y-111250000D03*
X261500000Y-107750000D03*
X262750000Y-100750000D03*
X262250000Y-96000000D03*
%TO.N,vdd*%
X179887500Y-115387500D03*
X211500000Y-151250000D03*
X209250000Y-108500000D03*
X214000000Y-111750000D03*
X191250000Y-194250000D03*
X217750000Y-194250000D03*
X225750000Y-84000000D03*
X244750000Y-174000000D03*
X173000000Y-97250000D03*
X191250000Y-116500000D03*
X191750000Y-103250000D03*
X183000000Y-93750000D03*
X228500000Y-112500000D03*
X225250000Y-106250000D03*
%TO.N,Net-(C6-Pad2)*%
X167000000Y-128000000D03*
X165500000Y-121250000D03*
%TO.N,/A15*%
X154500000Y-160250000D03*
X154500000Y-160250000D03*
X157500000Y-113000000D03*
X178420010Y-105335010D03*
X187085000Y-114000000D03*
%TO.N,/A14*%
X152000000Y-162000000D03*
X160750000Y-111000000D03*
%TO.N,/NMI*%
X191250000Y-121000000D03*
X197475001Y-124225001D03*
%TO.N,/A13*%
X150000000Y-162000000D03*
X163250000Y-109750000D03*
%TO.N,/IRQ*%
X204000000Y-118250000D03*
%TO.N,/A12*%
X148250000Y-162000000D03*
X165500000Y-108500000D03*
%TO.N,/A11*%
X185000000Y-170250000D03*
X164000000Y-115500000D03*
%TO.N,/CLK_PHASE1*%
X190000000Y-129000000D03*
%TO.N,/A10*%
X186750000Y-175250000D03*
X163500000Y-114250000D03*
%TO.N,/CLK*%
X173750000Y-120250000D03*
X179000000Y-118750000D03*
%TO.N,/A9*%
X168250000Y-116500000D03*
%TO.N,/A8*%
X163000000Y-113250000D03*
X173750000Y-107250000D03*
%TO.N,/A7*%
X186750000Y-106500000D03*
X200250000Y-130000000D03*
%TO.N,/A6*%
X191750000Y-107750000D03*
X201500000Y-129000000D03*
%TO.N,/A5*%
X192500000Y-110250000D03*
X202750000Y-127750000D03*
%TO.N,/A4*%
X202588499Y-105161501D03*
%TO.N,/A3*%
X219000000Y-123250000D03*
%TO.N,/D1*%
X210750000Y-200250000D03*
%TO.N,/A2*%
X218000000Y-122000000D03*
%TO.N,/D0*%
X201750000Y-198500000D03*
X175500000Y-192750000D03*
X171750000Y-196500000D03*
X214000000Y-132500000D03*
%TO.N,/A1*%
X216750000Y-120500000D03*
%TO.N,/A0*%
X228250000Y-186000000D03*
X215500000Y-119500000D03*
%TO.N,/DECODE*%
X240000000Y-147000000D03*
%TO.N,/RES*%
X200500000Y-113750000D03*
X172750000Y-123250000D03*
%TO.N,/DSR*%
X259750000Y-169500000D03*
%TO.N,/PA7*%
X209500000Y-95500000D03*
%TO.N,/RxD*%
X260250000Y-175500000D03*
%TO.N,/PA6*%
X209500000Y-94250000D03*
X267500000Y-142000000D03*
%TO.N,/TxD*%
X260750000Y-156750000D03*
%TO.N,/PA5*%
X209500000Y-93000000D03*
X268250000Y-138750000D03*
%TO.N,/PA4*%
X209500000Y-91500000D03*
X269000000Y-136000000D03*
%TO.N,/CB2*%
X257250000Y-134250000D03*
%TO.N,/PA3*%
X209500000Y-90250000D03*
X269750000Y-133250000D03*
%TO.N,/CB1*%
X257250000Y-132500000D03*
%TO.N,/PA2*%
X209500000Y-89000000D03*
X270500000Y-131000000D03*
%TO.N,/CA2*%
X263250000Y-123000000D03*
%TO.N,/PA1*%
X209500000Y-87750000D03*
X271250000Y-128000000D03*
%TO.N,/PA0*%
X209500000Y-86500000D03*
X272000000Y-125000000D03*
%TO.N,/SYNC*%
X208750000Y-123250000D03*
%TO.N,/RDY*%
X250000000Y-139250000D03*
%TO.N,/_A15*%
X188750000Y-159500000D03*
X185000000Y-142500000D03*
%TO.N,/DECODE_EN*%
X217000000Y-124250000D03*
X210573002Y-113500000D03*
X191991768Y-99560000D03*
%TO.N,Net-(U5-Pad2)*%
X178250000Y-95000000D03*
X177500000Y-104250000D03*
%TO.N,Net-(R4-Pad1)*%
X164000000Y-128500000D03*
X173984991Y-125300009D03*
%TO.N,Net-(R19-Pad1)*%
X152250000Y-122000000D03*
X167500000Y-124750000D03*
X163500000Y-127000000D03*
%TD*%
D18*
%TO.N,vdd*%
X219910000Y-111750000D02*
X221240000Y-113080000D01*
X214000000Y-111750000D02*
X219910000Y-111750000D01*
%TO.N,/RW*%
X196115001Y-166414999D02*
X194990000Y-167540000D01*
X220114999Y-166414999D02*
X196115001Y-166414999D01*
X221240000Y-167540000D02*
X220114999Y-166414999D01*
X163885001Y-163764999D02*
X162710000Y-164940000D01*
X191214999Y-163764999D02*
X163885001Y-163764999D01*
X194990000Y-167540000D02*
X191214999Y-163764999D01*
%TO.N,/NMI*%
X202474999Y-124225001D02*
X206000000Y-120700000D01*
X197475001Y-124225001D02*
X202474999Y-124225001D01*
%TO.N,/A13*%
X219825001Y-168665001D02*
X196404999Y-168665001D01*
X196404999Y-168665001D02*
X194990000Y-170080000D01*
X221240000Y-170080000D02*
X219825001Y-168665001D01*
%TO.N,/A11*%
X196115001Y-176574999D02*
X194990000Y-177700000D01*
X206540001Y-176574999D02*
X196115001Y-176574999D01*
X207665002Y-177700000D02*
X206540001Y-176574999D01*
X221240000Y-177700000D02*
X207665002Y-177700000D01*
X166604999Y-171205001D02*
X165250000Y-172560000D01*
X184044999Y-171205001D02*
X166604999Y-171205001D01*
X185000000Y-170250000D02*
X184044999Y-171205001D01*
X161534999Y-170584001D02*
X161534999Y-117965001D01*
X162145999Y-171195001D02*
X161534999Y-170584001D01*
X163084003Y-171195001D02*
X162145999Y-171195001D01*
X164449002Y-172560000D02*
X163084003Y-171195001D01*
X165250000Y-172560000D02*
X164449002Y-172560000D01*
X161534999Y-117965001D02*
X164000000Y-115500000D01*
X164000000Y-115500000D02*
X164000000Y-115500000D01*
X164000000Y-115500000D02*
X164000000Y-115500000D01*
%TO.N,/CLK_PHASE1*%
X206000000Y-113080000D02*
X190080000Y-129000000D01*
X190080000Y-129000000D02*
X190000000Y-129000000D01*
X190000000Y-129000000D02*
X190000000Y-129000000D01*
%TO.N,/A10*%
X196115001Y-181654999D02*
X194990000Y-182780000D01*
X220114999Y-181654999D02*
X196115001Y-181654999D01*
X221240000Y-182780000D02*
X220114999Y-181654999D01*
X166315001Y-174034999D02*
X185534999Y-174034999D01*
X165250000Y-175100000D02*
X166315001Y-174034999D01*
X185534999Y-174034999D02*
X186750000Y-175250000D01*
X186750000Y-175250000D02*
X186750000Y-175250000D01*
X161084989Y-172673991D02*
X161084989Y-116665011D01*
X162335997Y-173924999D02*
X161084989Y-172673991D01*
X164074999Y-173924999D02*
X162335997Y-173924999D01*
X165250000Y-175100000D02*
X164074999Y-173924999D01*
X161084989Y-116665011D02*
X163500000Y-114250000D01*
X163500000Y-114250000D02*
X163500000Y-114250000D01*
X163500000Y-114250000D02*
X163500000Y-114250000D01*
%TO.N,/A9*%
X196115001Y-174034999D02*
X194990000Y-175160000D01*
X206540001Y-174034999D02*
X196115001Y-174034999D01*
X207665002Y-175160000D02*
X206540001Y-174034999D01*
X221240000Y-175160000D02*
X207665002Y-175160000D01*
X166604999Y-176285001D02*
X165250000Y-177640000D01*
X193864999Y-176285001D02*
X166604999Y-176285001D01*
X194990000Y-175160000D02*
X193864999Y-176285001D01*
%TO.N,/D7*%
X196115001Y-186734999D02*
X194990000Y-187860000D01*
X220114999Y-186734999D02*
X196115001Y-186734999D01*
X221240000Y-187860000D02*
X220114999Y-186734999D01*
X163885001Y-181355001D02*
X162710000Y-180180000D01*
X165605001Y-181355001D02*
X163885001Y-181355001D01*
X170695001Y-186445001D02*
X165605001Y-181355001D01*
X193575001Y-186445001D02*
X170695001Y-186445001D01*
X194990000Y-187860000D02*
X193575001Y-186445001D01*
%TO.N,/A8*%
X196115001Y-171494999D02*
X194990000Y-172620000D01*
X220114999Y-171494999D02*
X196115001Y-171494999D01*
X221240000Y-172620000D02*
X220114999Y-171494999D01*
X160634979Y-177303981D02*
X160634979Y-115615021D01*
X164074999Y-179004999D02*
X162335997Y-179004999D01*
X162335997Y-179004999D02*
X160634979Y-177303981D01*
X165250000Y-180180000D02*
X164074999Y-179004999D01*
X160634979Y-115615021D02*
X163000000Y-113250000D01*
X163000000Y-113250000D02*
X163000000Y-113250000D01*
X163000000Y-113250000D02*
X163000000Y-113250000D01*
X163000000Y-113250000D02*
X163000000Y-113250000D01*
%TO.N,/D6*%
X196115001Y-189274999D02*
X194990000Y-190400000D01*
X220114999Y-189274999D02*
X196115001Y-189274999D01*
X221240000Y-190400000D02*
X220114999Y-189274999D01*
X163885001Y-183895001D02*
X162710000Y-182720000D01*
X165645001Y-183895001D02*
X163885001Y-183895001D01*
X170735001Y-188985001D02*
X165645001Y-183895001D01*
X193575001Y-188985001D02*
X170735001Y-188985001D01*
X194990000Y-190400000D02*
X193575001Y-188985001D01*
%TO.N,/D5*%
X196115001Y-191814999D02*
X194990000Y-192940000D01*
X220114999Y-191814999D02*
X196115001Y-191814999D01*
X221240000Y-192940000D02*
X220114999Y-191814999D01*
X193864999Y-191814999D02*
X171814999Y-191814999D01*
X194990000Y-192940000D02*
X193864999Y-191814999D01*
X163885001Y-186435001D02*
X162710000Y-185260000D01*
X166435001Y-186435001D02*
X163885001Y-186435001D01*
X171814999Y-191814999D02*
X166435001Y-186435001D01*
%TO.N,/D4*%
X196115001Y-194354999D02*
X194990000Y-195480000D01*
X206540001Y-194354999D02*
X196115001Y-194354999D01*
X207665002Y-195480000D02*
X206540001Y-194354999D01*
X221240000Y-195480000D02*
X207665002Y-195480000D01*
X163885001Y-188975001D02*
X162710000Y-187800000D01*
X171024413Y-194065001D02*
X165934413Y-188975001D01*
X165934413Y-188975001D02*
X163885001Y-188975001D01*
X181705000Y-195480000D02*
X180290001Y-194065001D01*
X180290001Y-194065001D02*
X171024413Y-194065001D01*
X194990000Y-195480000D02*
X181705000Y-195480000D01*
%TO.N,/D3*%
X196115001Y-196894999D02*
X194990000Y-198020000D01*
X220114999Y-196894999D02*
X196115001Y-196894999D01*
X221240000Y-198020000D02*
X220114999Y-196894999D01*
X168028001Y-191704999D02*
X164074999Y-191704999D01*
X173218001Y-196894999D02*
X168028001Y-191704999D01*
X164074999Y-191704999D02*
X162710000Y-190340000D01*
X193864999Y-196894999D02*
X173218001Y-196894999D01*
X194990000Y-198020000D02*
X193864999Y-196894999D01*
%TO.N,/A4*%
X207125001Y-137354999D02*
X206000000Y-138480000D01*
X207125001Y-106939999D02*
X207125001Y-137354999D01*
X205346503Y-105161501D02*
X207125001Y-106939999D01*
X202588499Y-105161501D02*
X205346503Y-105161501D01*
%TO.N,/A3*%
X221635001Y-122114999D02*
X220135001Y-122114999D01*
X222365001Y-121384999D02*
X221635001Y-122114999D01*
X222365001Y-119909997D02*
X222365001Y-121384999D01*
X231459999Y-110814999D02*
X222365001Y-119909997D01*
X233125001Y-110814999D02*
X231459999Y-110814999D01*
X247240000Y-96700000D02*
X233125001Y-110814999D01*
X220135001Y-122114999D02*
X219000000Y-123250000D01*
X219000000Y-123250000D02*
X219000000Y-123250000D01*
%TO.N,/A2*%
X221490003Y-119574999D02*
X220425001Y-119574999D01*
X222365001Y-118700001D02*
X221490003Y-119574999D01*
X231749997Y-107985001D02*
X222365001Y-117369997D01*
X233414999Y-107985001D02*
X231749997Y-107985001D01*
X222365001Y-117369997D02*
X222365001Y-118700001D01*
X247240000Y-94160000D02*
X233414999Y-107985001D01*
X220425001Y-119574999D02*
X218000000Y-122000000D01*
X218000000Y-122000000D02*
X218000000Y-122000000D01*
%TO.N,/D0*%
X221490003Y-142145001D02*
X216145001Y-142145001D01*
X235630003Y-156285001D02*
X221490003Y-142145001D01*
X238125001Y-156285001D02*
X235630003Y-156285001D01*
X252240000Y-170400000D02*
X238125001Y-156285001D01*
X216145001Y-142145001D02*
X212250000Y-138250000D01*
X212250000Y-138250000D02*
X212250000Y-134250000D01*
X212250000Y-134250000D02*
X214000000Y-132500000D01*
X214000000Y-132500000D02*
X214000000Y-132500000D01*
%TO.N,/A1*%
X231114999Y-183905001D02*
X237000000Y-178020000D01*
X207414999Y-183905001D02*
X231114999Y-183905001D01*
X206000000Y-185320000D02*
X207414999Y-183905001D01*
X222365001Y-116160001D02*
X221490003Y-117034999D01*
X222365001Y-114829997D02*
X222365001Y-116160001D01*
X231459999Y-105734999D02*
X222365001Y-114829997D01*
X221490003Y-117034999D02*
X220215001Y-117034999D01*
X233125001Y-105734999D02*
X231459999Y-105734999D01*
X247240000Y-91620000D02*
X233125001Y-105734999D01*
X220215001Y-117034999D02*
X216750000Y-120500000D01*
X216750000Y-120500000D02*
X216750000Y-120500000D01*
%TO.N,/A0*%
X220699999Y-188985001D02*
X225264999Y-188985001D01*
X219574998Y-187860000D02*
X220699999Y-188985001D01*
X206000000Y-187860000D02*
X219574998Y-187860000D01*
X225264999Y-188985001D02*
X228250000Y-186000000D01*
X228250000Y-186000000D02*
X228250000Y-186000000D01*
X221490003Y-114494999D02*
X220505001Y-114494999D01*
X222365001Y-113620001D02*
X221490003Y-114494999D01*
X222365001Y-112289997D02*
X222365001Y-113620001D01*
X231459999Y-103194999D02*
X222365001Y-112289997D01*
X233125001Y-103194999D02*
X231459999Y-103194999D01*
X247240000Y-89080000D02*
X233125001Y-103194999D01*
X220505001Y-114494999D02*
X215500000Y-119500000D01*
X215500000Y-119500000D02*
X215500000Y-119500000D01*
%TO.N,/DECODE*%
X250600000Y-128000000D02*
X247240000Y-124640000D01*
X263000000Y-128000000D02*
X250600000Y-128000000D01*
X247240000Y-124640000D02*
X240000000Y-131880000D01*
X240000000Y-131880000D02*
X240000000Y-147000000D01*
X240000000Y-147000000D02*
X240000000Y-147000000D01*
%TO.N,/RES*%
X200500000Y-113750000D02*
X189250000Y-113750000D01*
X189250000Y-113750000D02*
X180500000Y-122500000D01*
X180500000Y-122500000D02*
X180000000Y-123000000D01*
X180000000Y-123000000D02*
X179750000Y-123250000D01*
X179750000Y-123250000D02*
X172750000Y-123250000D01*
X172750000Y-123250000D02*
X172750000Y-123250000D01*
%TO.N,/DSR*%
X261339002Y-169500000D02*
X259750000Y-169500000D01*
X264364999Y-166474003D02*
X261339002Y-169500000D01*
X264364999Y-157304999D02*
X264364999Y-166474003D01*
X263000000Y-155940000D02*
X264364999Y-157304999D01*
%TO.N,/RxD*%
X251989997Y-174354999D02*
X259104999Y-174354999D01*
X250574998Y-172940000D02*
X251989997Y-174354999D01*
X237000000Y-172940000D02*
X250574998Y-172940000D01*
X259104999Y-174354999D02*
X260250000Y-175500000D01*
X260250000Y-175500000D02*
X260250000Y-175500000D01*
%TO.N,/TxD*%
X259445001Y-171525001D02*
X265500000Y-177580000D01*
X240665001Y-171525001D02*
X259445001Y-171525001D01*
X237000000Y-167860000D02*
X240665001Y-171525001D01*
%TO.N,/CA2*%
X263250000Y-102550000D02*
X247240000Y-86540000D01*
X263250000Y-123000000D02*
X263250000Y-102550000D01*
%TO.N,/CA1*%
X264364999Y-101124999D02*
X247240000Y-84000000D01*
X264364999Y-129175001D02*
X264364999Y-101124999D01*
X263000000Y-130540000D02*
X264364999Y-129175001D01*
%TO.N,/SYNC*%
X253474999Y-156574999D02*
X263000000Y-166100000D01*
X244204999Y-148954999D02*
X251824999Y-156574999D01*
X251824999Y-156574999D02*
X253474999Y-156574999D01*
X236749997Y-148954999D02*
X244204999Y-148954999D01*
X235424989Y-147629991D02*
X236749997Y-148954999D01*
X235424989Y-146424989D02*
X235424989Y-147629991D01*
X223814999Y-134814999D02*
X235424989Y-146424989D01*
X220888001Y-134814999D02*
X223814999Y-134814999D01*
X209323002Y-123250000D02*
X220888001Y-134814999D01*
X208750000Y-123250000D02*
X209323002Y-123250000D01*
%TO.N,/RDY*%
X250000000Y-139250000D02*
X252000000Y-139250000D01*
X260024999Y-160584999D02*
X263000000Y-163560000D01*
X260024999Y-147274999D02*
X260024999Y-160584999D01*
X252000000Y-139250000D02*
X260024999Y-147274999D01*
%TO.N,/_A15*%
X185000000Y-155750000D02*
X188750000Y-159500000D01*
X185000000Y-142500000D02*
X185000000Y-155750000D01*
%TO.N,/DECODE_EN*%
X208524999Y-111451997D02*
X210573002Y-113500000D01*
X208524999Y-107703587D02*
X208524999Y-111451997D01*
X200381412Y-99560000D02*
X208524999Y-107703587D01*
X191991768Y-99560000D02*
X200381412Y-99560000D01*
%TO.N,Net-(R4-Pad1)*%
X165426998Y-128500000D02*
X164000000Y-128500000D01*
X168626989Y-125300009D02*
X165426998Y-128500000D01*
X173984991Y-125300009D02*
X168626989Y-125300009D01*
%TD*%
M02*
