%TF.GenerationSoftware,KiCad,Pcbnew,(5.1.10)-1*%
%TF.CreationDate,2021-07-28T21:06:30+10:00*%
%TF.ProjectId,6502sbc,36353032-7362-4632-9e6b-696361645f70,rev?*%
%TF.SameCoordinates,Original*%
%TF.FileFunction,Paste,Bot*%
%TF.FilePolarity,Positive*%
%FSLAX46Y46*%
G04 Gerber Fmt 4.6, Leading zero omitted, Abs format (unit mm)*
G04 Created by KiCad (PCBNEW (5.1.10)-1) date 2021-07-28 21:06:30*
%MOMM*%
%LPD*%
G01*
G04 APERTURE LIST*
G04 APERTURE END LIST*
%TO.C,C13*%
G36*
G01*
X182762500Y-96075000D02*
X183237500Y-96075000D01*
G75*
G02*
X183475000Y-96312500I0J-237500D01*
G01*
X183475000Y-96912500D01*
G75*
G02*
X183237500Y-97150000I-237500J0D01*
G01*
X182762500Y-97150000D01*
G75*
G02*
X182525000Y-96912500I0J237500D01*
G01*
X182525000Y-96312500D01*
G75*
G02*
X182762500Y-96075000I237500J0D01*
G01*
G37*
G36*
G01*
X182762500Y-94350000D02*
X183237500Y-94350000D01*
G75*
G02*
X183475000Y-94587500I0J-237500D01*
G01*
X183475000Y-95187500D01*
G75*
G02*
X183237500Y-95425000I-237500J0D01*
G01*
X182762500Y-95425000D01*
G75*
G02*
X182525000Y-95187500I0J237500D01*
G01*
X182525000Y-94587500D01*
G75*
G02*
X182762500Y-94350000I237500J0D01*
G01*
G37*
%TD*%
%TO.C,R7*%
G36*
G01*
X210299999Y-109900000D02*
X211200001Y-109900000D01*
G75*
G02*
X211450000Y-110149999I0J-249999D01*
G01*
X211450000Y-110850001D01*
G75*
G02*
X211200001Y-111100000I-249999J0D01*
G01*
X210299999Y-111100000D01*
G75*
G02*
X210050000Y-110850001I0J249999D01*
G01*
X210050000Y-110149999D01*
G75*
G02*
X210299999Y-109900000I249999J0D01*
G01*
G37*
G36*
G01*
X210299999Y-107900000D02*
X211200001Y-107900000D01*
G75*
G02*
X211450000Y-108149999I0J-249999D01*
G01*
X211450000Y-108850001D01*
G75*
G02*
X211200001Y-109100000I-249999J0D01*
G01*
X210299999Y-109100000D01*
G75*
G02*
X210050000Y-108850001I0J249999D01*
G01*
X210050000Y-108149999D01*
G75*
G02*
X210299999Y-107900000I249999J0D01*
G01*
G37*
%TD*%
%TO.C,R6*%
G36*
G01*
X213549999Y-114400000D02*
X214450001Y-114400000D01*
G75*
G02*
X214700000Y-114649999I0J-249999D01*
G01*
X214700000Y-115350001D01*
G75*
G02*
X214450001Y-115600000I-249999J0D01*
G01*
X213549999Y-115600000D01*
G75*
G02*
X213300000Y-115350001I0J249999D01*
G01*
X213300000Y-114649999D01*
G75*
G02*
X213549999Y-114400000I249999J0D01*
G01*
G37*
G36*
G01*
X213549999Y-112400000D02*
X214450001Y-112400000D01*
G75*
G02*
X214700000Y-112649999I0J-249999D01*
G01*
X214700000Y-113350001D01*
G75*
G02*
X214450001Y-113600000I-249999J0D01*
G01*
X213549999Y-113600000D01*
G75*
G02*
X213300000Y-113350001I0J249999D01*
G01*
X213300000Y-112649999D01*
G75*
G02*
X213549999Y-112400000I249999J0D01*
G01*
G37*
%TD*%
%TO.C,C14*%
G36*
G01*
X191512500Y-105825000D02*
X191987500Y-105825000D01*
G75*
G02*
X192225000Y-106062500I0J-237500D01*
G01*
X192225000Y-106662500D01*
G75*
G02*
X191987500Y-106900000I-237500J0D01*
G01*
X191512500Y-106900000D01*
G75*
G02*
X191275000Y-106662500I0J237500D01*
G01*
X191275000Y-106062500D01*
G75*
G02*
X191512500Y-105825000I237500J0D01*
G01*
G37*
G36*
G01*
X191512500Y-104100000D02*
X191987500Y-104100000D01*
G75*
G02*
X192225000Y-104337500I0J-237500D01*
G01*
X192225000Y-104937500D01*
G75*
G02*
X191987500Y-105175000I-237500J0D01*
G01*
X191512500Y-105175000D01*
G75*
G02*
X191275000Y-104937500I0J237500D01*
G01*
X191275000Y-104337500D01*
G75*
G02*
X191512500Y-104100000I237500J0D01*
G01*
G37*
%TD*%
%TO.C,C12*%
G36*
G01*
X172762500Y-99575000D02*
X173237500Y-99575000D01*
G75*
G02*
X173475000Y-99812500I0J-237500D01*
G01*
X173475000Y-100412500D01*
G75*
G02*
X173237500Y-100650000I-237500J0D01*
G01*
X172762500Y-100650000D01*
G75*
G02*
X172525000Y-100412500I0J237500D01*
G01*
X172525000Y-99812500D01*
G75*
G02*
X172762500Y-99575000I237500J0D01*
G01*
G37*
G36*
G01*
X172762500Y-97850000D02*
X173237500Y-97850000D01*
G75*
G02*
X173475000Y-98087500I0J-237500D01*
G01*
X173475000Y-98687500D01*
G75*
G02*
X173237500Y-98925000I-237500J0D01*
G01*
X172762500Y-98925000D01*
G75*
G02*
X172525000Y-98687500I0J237500D01*
G01*
X172525000Y-98087500D01*
G75*
G02*
X172762500Y-97850000I237500J0D01*
G01*
G37*
%TD*%
%TO.C,C11*%
G36*
G01*
X191512500Y-118825000D02*
X191987500Y-118825000D01*
G75*
G02*
X192225000Y-119062500I0J-237500D01*
G01*
X192225000Y-119662500D01*
G75*
G02*
X191987500Y-119900000I-237500J0D01*
G01*
X191512500Y-119900000D01*
G75*
G02*
X191275000Y-119662500I0J237500D01*
G01*
X191275000Y-119062500D01*
G75*
G02*
X191512500Y-118825000I237500J0D01*
G01*
G37*
G36*
G01*
X191512500Y-117100000D02*
X191987500Y-117100000D01*
G75*
G02*
X192225000Y-117337500I0J-237500D01*
G01*
X192225000Y-117937500D01*
G75*
G02*
X191987500Y-118175000I-237500J0D01*
G01*
X191512500Y-118175000D01*
G75*
G02*
X191275000Y-117937500I0J237500D01*
G01*
X191275000Y-117337500D01*
G75*
G02*
X191512500Y-117100000I237500J0D01*
G01*
G37*
%TD*%
%TO.C,C10*%
G36*
G01*
X178262500Y-116575000D02*
X178737500Y-116575000D01*
G75*
G02*
X178975000Y-116812500I0J-237500D01*
G01*
X178975000Y-117412500D01*
G75*
G02*
X178737500Y-117650000I-237500J0D01*
G01*
X178262500Y-117650000D01*
G75*
G02*
X178025000Y-117412500I0J237500D01*
G01*
X178025000Y-116812500D01*
G75*
G02*
X178262500Y-116575000I237500J0D01*
G01*
G37*
G36*
G01*
X178262500Y-114850000D02*
X178737500Y-114850000D01*
G75*
G02*
X178975000Y-115087500I0J-237500D01*
G01*
X178975000Y-115687500D01*
G75*
G02*
X178737500Y-115925000I-237500J0D01*
G01*
X178262500Y-115925000D01*
G75*
G02*
X178025000Y-115687500I0J237500D01*
G01*
X178025000Y-115087500D01*
G75*
G02*
X178262500Y-114850000I237500J0D01*
G01*
G37*
%TD*%
%TO.C,C8*%
G36*
G01*
X217987500Y-195925000D02*
X217512500Y-195925000D01*
G75*
G02*
X217275000Y-195687500I0J237500D01*
G01*
X217275000Y-195087500D01*
G75*
G02*
X217512500Y-194850000I237500J0D01*
G01*
X217987500Y-194850000D01*
G75*
G02*
X218225000Y-195087500I0J-237500D01*
G01*
X218225000Y-195687500D01*
G75*
G02*
X217987500Y-195925000I-237500J0D01*
G01*
G37*
G36*
G01*
X217987500Y-197650000D02*
X217512500Y-197650000D01*
G75*
G02*
X217275000Y-197412500I0J237500D01*
G01*
X217275000Y-196812500D01*
G75*
G02*
X217512500Y-196575000I237500J0D01*
G01*
X217987500Y-196575000D01*
G75*
G02*
X218225000Y-196812500I0J-237500D01*
G01*
X218225000Y-197412500D01*
G75*
G02*
X217987500Y-197650000I-237500J0D01*
G01*
G37*
%TD*%
%TO.C,C7*%
G36*
G01*
X191487500Y-196175000D02*
X191012500Y-196175000D01*
G75*
G02*
X190775000Y-195937500I0J237500D01*
G01*
X190775000Y-195337500D01*
G75*
G02*
X191012500Y-195100000I237500J0D01*
G01*
X191487500Y-195100000D01*
G75*
G02*
X191725000Y-195337500I0J-237500D01*
G01*
X191725000Y-195937500D01*
G75*
G02*
X191487500Y-196175000I-237500J0D01*
G01*
G37*
G36*
G01*
X191487500Y-197900000D02*
X191012500Y-197900000D01*
G75*
G02*
X190775000Y-197662500I0J237500D01*
G01*
X190775000Y-197062500D01*
G75*
G02*
X191012500Y-196825000I237500J0D01*
G01*
X191487500Y-196825000D01*
G75*
G02*
X191725000Y-197062500I0J-237500D01*
G01*
X191725000Y-197662500D01*
G75*
G02*
X191487500Y-197900000I-237500J0D01*
G01*
G37*
%TD*%
%TO.C,C5*%
G36*
G01*
X244512500Y-171825000D02*
X244987500Y-171825000D01*
G75*
G02*
X245225000Y-172062500I0J-237500D01*
G01*
X245225000Y-172662500D01*
G75*
G02*
X244987500Y-172900000I-237500J0D01*
G01*
X244512500Y-172900000D01*
G75*
G02*
X244275000Y-172662500I0J237500D01*
G01*
X244275000Y-172062500D01*
G75*
G02*
X244512500Y-171825000I237500J0D01*
G01*
G37*
G36*
G01*
X244512500Y-170100000D02*
X244987500Y-170100000D01*
G75*
G02*
X245225000Y-170337500I0J-237500D01*
G01*
X245225000Y-170937500D01*
G75*
G02*
X244987500Y-171175000I-237500J0D01*
G01*
X244512500Y-171175000D01*
G75*
G02*
X244275000Y-170937500I0J237500D01*
G01*
X244275000Y-170337500D01*
G75*
G02*
X244512500Y-170100000I237500J0D01*
G01*
G37*
%TD*%
%TO.C,C4*%
G36*
G01*
X227675000Y-83762500D02*
X227675000Y-84237500D01*
G75*
G02*
X227437500Y-84475000I-237500J0D01*
G01*
X226837500Y-84475000D01*
G75*
G02*
X226600000Y-84237500I0J237500D01*
G01*
X226600000Y-83762500D01*
G75*
G02*
X226837500Y-83525000I237500J0D01*
G01*
X227437500Y-83525000D01*
G75*
G02*
X227675000Y-83762500I0J-237500D01*
G01*
G37*
G36*
G01*
X229400000Y-83762500D02*
X229400000Y-84237500D01*
G75*
G02*
X229162500Y-84475000I-237500J0D01*
G01*
X228562500Y-84475000D01*
G75*
G02*
X228325000Y-84237500I0J237500D01*
G01*
X228325000Y-83762500D01*
G75*
G02*
X228562500Y-83525000I237500J0D01*
G01*
X229162500Y-83525000D01*
G75*
G02*
X229400000Y-83762500I0J-237500D01*
G01*
G37*
%TD*%
%TO.C,C3*%
G36*
G01*
X211262500Y-149575000D02*
X211737500Y-149575000D01*
G75*
G02*
X211975000Y-149812500I0J-237500D01*
G01*
X211975000Y-150412500D01*
G75*
G02*
X211737500Y-150650000I-237500J0D01*
G01*
X211262500Y-150650000D01*
G75*
G02*
X211025000Y-150412500I0J237500D01*
G01*
X211025000Y-149812500D01*
G75*
G02*
X211262500Y-149575000I237500J0D01*
G01*
G37*
G36*
G01*
X211262500Y-147850000D02*
X211737500Y-147850000D01*
G75*
G02*
X211975000Y-148087500I0J-237500D01*
G01*
X211975000Y-148687500D01*
G75*
G02*
X211737500Y-148925000I-237500J0D01*
G01*
X211262500Y-148925000D01*
G75*
G02*
X211025000Y-148687500I0J237500D01*
G01*
X211025000Y-148087500D01*
G75*
G02*
X211262500Y-147850000I237500J0D01*
G01*
G37*
%TD*%
M02*
