M48
; DRILL file {KiCad (5.1.10)-1} date 07/28/21 21:07:01
; FORMAT={3:3/ absolute / metric / suppress leading zeros}
; #@! TF.CreationDate,2021-07-28T21:07:01+10:00
; #@! TF.GenerationSoftware,Kicad,Pcbnew,(5.1.10)-1
FMAT,2
METRIC,TZ
T1C0.400
T2C0.800
T3C1.000
T4C1.100
%
G90
G05
T1
X148250Y-162000
X150000Y-162000
X152000Y-162000
X152250Y-122000
X152250Y-126500
X154500Y-160250
X154500Y-160250
X157500Y-113000
X160750Y-111000
X163000Y-113250
X163250Y-109750
X163500Y-114250
X163500Y-127000
X164000Y-115500
X164000Y-128500
X164500Y-98000
X164500Y-104000
X165500Y-108500
X165500Y-121250
X167000Y-128000
X167500Y-124750
X168250Y-116500
X168560Y-123810
X168770Y-118730
X170500Y-112000
X171750Y-196500
X172750Y-123250
X173000Y-97250
X173000Y-129250
X173750Y-107250
X173750Y-120250
X173985Y-125300
X175500Y-192750
X177500Y-104250
X178250Y-95000
X178420Y-105335
X178750Y-99500
X179000Y-118750
X179000Y-129250
X179888Y-115388
X183000Y-93750
X185000Y-142500
X185000Y-170250
X185538Y-129963
X186750Y-106500
X186750Y-175250
X187000Y-94500
X187085Y-114000
X187250Y-123000
X187520Y-108520
X188750Y-159500
X190000Y-88250
X190000Y-129000
X191250Y-116500
X191250Y-121000
X191250Y-194250
X191750Y-103250
X191750Y-107750
X191992Y-99560
X192500Y-110250
X194000Y-129000
X195730Y-105980
X195960Y-117460
X195975Y-120775
X197475Y-124225
X200250Y-130000
X200500Y-113750
X201500Y-129000
X201750Y-198500
X202588Y-105162
X202750Y-127750
X204000Y-118250
X208750Y-123250
X209250Y-108500
X209500Y-86500
X209500Y-87750
X209500Y-89000
X209500Y-90250
X209500Y-91500
X209500Y-93000
X209500Y-94250
X209500Y-95500
X209535Y-96715
X210573Y-113500
X210750Y-200250
X211500Y-151250
X214000Y-111750
X214000Y-132500
X215500Y-119500
X216750Y-120500
X217000Y-124250
X217750Y-84750
X217750Y-194250
X218000Y-122000
X219000Y-123250
X225250Y-106250
X225750Y-84000
X227000Y-151750
X228250Y-186000
X228500Y-112500
X240000Y-147000
X244750Y-174000
X250000Y-139250
X257250Y-132500
X257250Y-134250
X259750Y-169500
X260000Y-119000
X260250Y-175500
X260750Y-156750
X261500Y-107750
X262000Y-86000
X262000Y-91000
X262250Y-96000
X262250Y-111250
X262250Y-116500
X262750Y-100750
X263250Y-123000
X267500Y-142000
X268250Y-138750
X269000Y-136000
X269750Y-133250
X270500Y-131000
X271250Y-128000
X272000Y-125000
T2
X179750Y-165000
X179750Y-167540
X179750Y-170080
X179750Y-172620
X179750Y-175160
X179750Y-177700
X179750Y-180240
X179750Y-182780
X179750Y-185320
X179750Y-187860
X179750Y-190400
X179750Y-192940
X179750Y-195480
X179750Y-198020
X194990Y-165000
X194990Y-167540
X194990Y-170080
X194990Y-172620
X194990Y-175160
X194990Y-177700
X194990Y-180240
X194990Y-182780
X194990Y-185320
X194990Y-187860
X194990Y-190400
X194990Y-192940
X194990Y-195480
X194990Y-198020
X206000Y-108000
X206000Y-110540
X206000Y-113080
X206000Y-115620
X206000Y-118160
X206000Y-120700
X206000Y-123240
X206000Y-125780
X206000Y-128320
X206000Y-130860
X206000Y-133400
X206000Y-135940
X206000Y-138480
X206000Y-141020
X206000Y-143560
X206000Y-146100
X206000Y-148640
X206000Y-151180
X206000Y-153720
X206000Y-156260
X206000Y-165000
X206000Y-167540
X206000Y-170080
X206000Y-172620
X206000Y-175160
X206000Y-177700
X206000Y-180240
X206000Y-182780
X206000Y-185320
X206000Y-187860
X206000Y-190400
X206000Y-192940
X206000Y-195480
X206000Y-198020
X221240Y-108000
X221240Y-110540
X221240Y-113080
X221240Y-115620
X221240Y-118160
X221240Y-120700
X221240Y-123240
X221240Y-125780
X221240Y-128320
X221240Y-130860
X221240Y-133400
X221240Y-135940
X221240Y-138480
X221240Y-141020
X221240Y-143560
X221240Y-146100
X221240Y-148640
X221240Y-151180
X221240Y-153720
X221240Y-156260
X221240Y-165000
X221240Y-167540
X221240Y-170080
X221240Y-172620
X221240Y-175160
X221240Y-177700
X221240Y-180240
X221240Y-182780
X221240Y-185320
X221240Y-187860
X221240Y-190400
X221240Y-192940
X221240Y-195480
X221240Y-198020
X232000Y-84000
X232000Y-86540
X232000Y-89080
X232000Y-91620
X232000Y-94160
X232000Y-96700
X232000Y-99240
X232000Y-101780
X232000Y-104320
X232000Y-106860
X232000Y-109400
X232000Y-111940
X232000Y-114480
X232000Y-117020
X232000Y-119560
X232000Y-122100
X232000Y-124640
X232000Y-127180
X232000Y-129720
X232000Y-132260
X237000Y-145000
X237000Y-147540
X237000Y-150080
X237000Y-152620
X237000Y-155160
X237000Y-157700
X237000Y-160240
X237000Y-162780
X237000Y-165320
X237000Y-167860
X237000Y-170400
X237000Y-172940
X237000Y-175480
X237000Y-178020
X247240Y-84000
X247240Y-86540
X247240Y-89080
X247240Y-91620
X247240Y-94160
X247240Y-96700
X247240Y-99240
X247240Y-101780
X247240Y-104320
X247240Y-106860
X247240Y-109400
X247240Y-111940
X247240Y-114480
X247240Y-117020
X247240Y-119560
X247240Y-122100
X247240Y-124640
X247240Y-127180
X247240Y-129720
X247240Y-132260
X252240Y-145000
X252240Y-147540
X252240Y-150080
X252240Y-152620
X252240Y-155160
X252240Y-157700
X252240Y-160240
X252240Y-162780
X252240Y-165320
X252240Y-167860
X252240Y-170400
X252240Y-172940
X252240Y-175480
X252240Y-178020
T3
X159000Y-119000
X159000Y-124000
X161000Y-80000
X161000Y-82540
X161000Y-85080
X162710Y-162400
X162710Y-164940
X162710Y-167480
X162710Y-170020
X162710Y-172560
X162710Y-175100
X162710Y-177640
X162710Y-180180
X162710Y-182720
X162710Y-185260
X162710Y-187800
X162710Y-190340
X162710Y-192880
X162710Y-195420
X162710Y-197960
X162710Y-200500
X165250Y-162400
X165250Y-164940
X165250Y-167480
X165250Y-170020
X165250Y-172560
X165250Y-175100
X165250Y-177640
X165250Y-180180
X165250Y-182720
X165250Y-185260
X165250Y-187800
X165250Y-190340
X165250Y-192880
X165250Y-195420
X165250Y-197960
X165250Y-200500
X175000Y-80000
X175000Y-82540
X175000Y-85080
X201000Y-86000
X201000Y-88540
X230000Y-157000
X230000Y-162000
X263000Y-128000
X263000Y-130540
X263000Y-133080
X263000Y-135620
X263000Y-138160
X263000Y-140700
X263000Y-143240
X263000Y-145780
X263000Y-148320
X263000Y-150860
X263000Y-153400
X263000Y-155940
X263000Y-158480
X263000Y-161020
X263000Y-163560
X263000Y-166100
X265500Y-172500
X265500Y-175040
X265500Y-177580
X265540Y-128000
X265540Y-130540
X265540Y-133080
X265540Y-135620
X265540Y-138160
X265540Y-140700
X265540Y-143240
X265540Y-145780
X265540Y-148320
X265540Y-150860
X265540Y-153400
X265540Y-155940
X265540Y-158480
X265540Y-161020
X265540Y-163560
X265540Y-166100
T4
X153750Y-99000
X153750Y-101540
X153750Y-104080
T0
M30
