%TF.GenerationSoftware,KiCad,Pcbnew,(5.1.10)-1*%
%TF.CreationDate,2021-07-28T21:06:30+10:00*%
%TF.ProjectId,6502sbc,36353032-7362-4632-9e6b-696361645f70,rev?*%
%TF.SameCoordinates,Original*%
%TF.FileFunction,Soldermask,Bot*%
%TF.FilePolarity,Negative*%
%FSLAX46Y46*%
G04 Gerber Fmt 4.6, Leading zero omitted, Abs format (unit mm)*
G04 Created by KiCad (PCBNEW (5.1.10)-1) date 2021-07-28 21:06:30*
%MOMM*%
%LPD*%
G01*
G04 APERTURE LIST*
%ADD10O,1.600000X1.600000*%
%ADD11R,1.600000X1.600000*%
%ADD12O,1.700000X1.700000*%
%ADD13R,1.700000X1.700000*%
%ADD14C,1.700000*%
%ADD15O,2.000000X1.905000*%
%ADD16R,2.000000X1.905000*%
G04 APERTURE END LIST*
%TO.C,C13*%
G36*
G01*
X182762500Y-96075000D02*
X183237500Y-96075000D01*
G75*
G02*
X183475000Y-96312500I0J-237500D01*
G01*
X183475000Y-96912500D01*
G75*
G02*
X183237500Y-97150000I-237500J0D01*
G01*
X182762500Y-97150000D01*
G75*
G02*
X182525000Y-96912500I0J237500D01*
G01*
X182525000Y-96312500D01*
G75*
G02*
X182762500Y-96075000I237500J0D01*
G01*
G37*
G36*
G01*
X182762500Y-94350000D02*
X183237500Y-94350000D01*
G75*
G02*
X183475000Y-94587500I0J-237500D01*
G01*
X183475000Y-95187500D01*
G75*
G02*
X183237500Y-95425000I-237500J0D01*
G01*
X182762500Y-95425000D01*
G75*
G02*
X182525000Y-95187500I0J237500D01*
G01*
X182525000Y-94587500D01*
G75*
G02*
X182762500Y-94350000I237500J0D01*
G01*
G37*
%TD*%
D10*
%TO.C,U7*%
X194990000Y-165000000D03*
X179750000Y-198020000D03*
X194990000Y-167540000D03*
X179750000Y-195480000D03*
X194990000Y-170080000D03*
X179750000Y-192940000D03*
X194990000Y-172620000D03*
X179750000Y-190400000D03*
X194990000Y-175160000D03*
X179750000Y-187860000D03*
X194990000Y-177700000D03*
X179750000Y-185320000D03*
X194990000Y-180240000D03*
X179750000Y-182780000D03*
X194990000Y-182780000D03*
X179750000Y-180240000D03*
X194990000Y-185320000D03*
X179750000Y-177700000D03*
X194990000Y-187860000D03*
X179750000Y-175160000D03*
X194990000Y-190400000D03*
X179750000Y-172620000D03*
X194990000Y-192940000D03*
X179750000Y-170080000D03*
X194990000Y-195480000D03*
X179750000Y-167540000D03*
X194990000Y-198020000D03*
D11*
X179750000Y-165000000D03*
%TD*%
D10*
%TO.C,U8*%
X221240000Y-165000000D03*
X206000000Y-198020000D03*
X221240000Y-167540000D03*
X206000000Y-195480000D03*
X221240000Y-170080000D03*
X206000000Y-192940000D03*
X221240000Y-172620000D03*
X206000000Y-190400000D03*
X221240000Y-175160000D03*
X206000000Y-187860000D03*
X221240000Y-177700000D03*
X206000000Y-185320000D03*
X221240000Y-180240000D03*
X206000000Y-182780000D03*
X221240000Y-182780000D03*
X206000000Y-180240000D03*
X221240000Y-185320000D03*
X206000000Y-177700000D03*
X221240000Y-187860000D03*
X206000000Y-175160000D03*
X221240000Y-190400000D03*
X206000000Y-172620000D03*
X221240000Y-192940000D03*
X206000000Y-170080000D03*
X221240000Y-195480000D03*
X206000000Y-167540000D03*
X221240000Y-198020000D03*
D11*
X206000000Y-165000000D03*
%TD*%
D12*
%TO.C,J8*%
X175000000Y-85080000D03*
X175000000Y-82540000D03*
D13*
X175000000Y-80000000D03*
%TD*%
D12*
%TO.C,J7*%
X161000000Y-85080000D03*
X161000000Y-82540000D03*
D13*
X161000000Y-80000000D03*
%TD*%
%TO.C,R7*%
G36*
G01*
X210299999Y-109900000D02*
X211200001Y-109900000D01*
G75*
G02*
X211450000Y-110149999I0J-249999D01*
G01*
X211450000Y-110850001D01*
G75*
G02*
X211200001Y-111100000I-249999J0D01*
G01*
X210299999Y-111100000D01*
G75*
G02*
X210050000Y-110850001I0J249999D01*
G01*
X210050000Y-110149999D01*
G75*
G02*
X210299999Y-109900000I249999J0D01*
G01*
G37*
G36*
G01*
X210299999Y-107900000D02*
X211200001Y-107900000D01*
G75*
G02*
X211450000Y-108149999I0J-249999D01*
G01*
X211450000Y-108850001D01*
G75*
G02*
X211200001Y-109100000I-249999J0D01*
G01*
X210299999Y-109100000D01*
G75*
G02*
X210050000Y-108850001I0J249999D01*
G01*
X210050000Y-108149999D01*
G75*
G02*
X210299999Y-107900000I249999J0D01*
G01*
G37*
%TD*%
D12*
%TO.C,J6*%
X265500000Y-177580000D03*
X265500000Y-175040000D03*
D13*
X265500000Y-172500000D03*
%TD*%
D10*
%TO.C,U3*%
X247240000Y-84000000D03*
X232000000Y-132260000D03*
X247240000Y-86540000D03*
X232000000Y-129720000D03*
X247240000Y-89080000D03*
X232000000Y-127180000D03*
X247240000Y-91620000D03*
X232000000Y-124640000D03*
X247240000Y-94160000D03*
X232000000Y-122100000D03*
X247240000Y-96700000D03*
X232000000Y-119560000D03*
X247240000Y-99240000D03*
X232000000Y-117020000D03*
X247240000Y-101780000D03*
X232000000Y-114480000D03*
X247240000Y-104320000D03*
X232000000Y-111940000D03*
X247240000Y-106860000D03*
X232000000Y-109400000D03*
X247240000Y-109400000D03*
X232000000Y-106860000D03*
X247240000Y-111940000D03*
X232000000Y-104320000D03*
X247240000Y-114480000D03*
X232000000Y-101780000D03*
X247240000Y-117020000D03*
X232000000Y-99240000D03*
X247240000Y-119560000D03*
X232000000Y-96700000D03*
X247240000Y-122100000D03*
X232000000Y-94160000D03*
X247240000Y-124640000D03*
X232000000Y-91620000D03*
X247240000Y-127180000D03*
X232000000Y-89080000D03*
X247240000Y-129720000D03*
X232000000Y-86540000D03*
X247240000Y-132260000D03*
D11*
X232000000Y-84000000D03*
%TD*%
D14*
%TO.C,Y2*%
X230000000Y-157000000D03*
X230000000Y-162000000D03*
%TD*%
%TO.C,Y1*%
X159000000Y-119000000D03*
X159000000Y-124000000D03*
%TD*%
D10*
%TO.C,U4*%
X252240000Y-145000000D03*
X237000000Y-178020000D03*
X252240000Y-147540000D03*
X237000000Y-175480000D03*
X252240000Y-150080000D03*
X237000000Y-172940000D03*
X252240000Y-152620000D03*
X237000000Y-170400000D03*
X252240000Y-155160000D03*
X237000000Y-167860000D03*
X252240000Y-157700000D03*
X237000000Y-165320000D03*
X252240000Y-160240000D03*
X237000000Y-162780000D03*
X252240000Y-162780000D03*
X237000000Y-160240000D03*
X252240000Y-165320000D03*
X237000000Y-157700000D03*
X252240000Y-167860000D03*
X237000000Y-155160000D03*
X252240000Y-170400000D03*
X237000000Y-152620000D03*
X252240000Y-172940000D03*
X237000000Y-150080000D03*
X252240000Y-175480000D03*
X237000000Y-147540000D03*
X252240000Y-178020000D03*
D11*
X237000000Y-145000000D03*
%TD*%
D10*
%TO.C,U2*%
X221240000Y-108000000D03*
X206000000Y-156260000D03*
X221240000Y-110540000D03*
X206000000Y-153720000D03*
X221240000Y-113080000D03*
X206000000Y-151180000D03*
X221240000Y-115620000D03*
X206000000Y-148640000D03*
X221240000Y-118160000D03*
X206000000Y-146100000D03*
X221240000Y-120700000D03*
X206000000Y-143560000D03*
X221240000Y-123240000D03*
X206000000Y-141020000D03*
X221240000Y-125780000D03*
X206000000Y-138480000D03*
X221240000Y-128320000D03*
X206000000Y-135940000D03*
X221240000Y-130860000D03*
X206000000Y-133400000D03*
X221240000Y-133400000D03*
X206000000Y-130860000D03*
X221240000Y-135940000D03*
X206000000Y-128320000D03*
X221240000Y-138480000D03*
X206000000Y-125780000D03*
X221240000Y-141020000D03*
X206000000Y-123240000D03*
X221240000Y-143560000D03*
X206000000Y-120700000D03*
X221240000Y-146100000D03*
X206000000Y-118160000D03*
X221240000Y-148640000D03*
X206000000Y-115620000D03*
X221240000Y-151180000D03*
X206000000Y-113080000D03*
X221240000Y-153720000D03*
X206000000Y-110540000D03*
X221240000Y-156260000D03*
D11*
X206000000Y-108000000D03*
%TD*%
D15*
%TO.C,U1*%
X153750000Y-104080000D03*
X153750000Y-101540000D03*
D16*
X153750000Y-99000000D03*
%TD*%
%TO.C,R6*%
G36*
G01*
X213549999Y-114400000D02*
X214450001Y-114400000D01*
G75*
G02*
X214700000Y-114649999I0J-249999D01*
G01*
X214700000Y-115350001D01*
G75*
G02*
X214450001Y-115600000I-249999J0D01*
G01*
X213549999Y-115600000D01*
G75*
G02*
X213300000Y-115350001I0J249999D01*
G01*
X213300000Y-114649999D01*
G75*
G02*
X213549999Y-114400000I249999J0D01*
G01*
G37*
G36*
G01*
X213549999Y-112400000D02*
X214450001Y-112400000D01*
G75*
G02*
X214700000Y-112649999I0J-249999D01*
G01*
X214700000Y-113350001D01*
G75*
G02*
X214450001Y-113600000I-249999J0D01*
G01*
X213549999Y-113600000D01*
G75*
G02*
X213300000Y-113350001I0J249999D01*
G01*
X213300000Y-112649999D01*
G75*
G02*
X213549999Y-112400000I249999J0D01*
G01*
G37*
%TD*%
D12*
%TO.C,J3*%
X265540000Y-166100000D03*
X263000000Y-166100000D03*
X265540000Y-163560000D03*
X263000000Y-163560000D03*
X265540000Y-161020000D03*
X263000000Y-161020000D03*
X265540000Y-158480000D03*
X263000000Y-158480000D03*
X265540000Y-155940000D03*
X263000000Y-155940000D03*
X265540000Y-153400000D03*
X263000000Y-153400000D03*
X265540000Y-150860000D03*
X263000000Y-150860000D03*
X265540000Y-148320000D03*
X263000000Y-148320000D03*
X265540000Y-145780000D03*
X263000000Y-145780000D03*
X265540000Y-143240000D03*
X263000000Y-143240000D03*
X265540000Y-140700000D03*
X263000000Y-140700000D03*
X265540000Y-138160000D03*
X263000000Y-138160000D03*
X265540000Y-135620000D03*
X263000000Y-135620000D03*
X265540000Y-133080000D03*
X263000000Y-133080000D03*
X265540000Y-130540000D03*
X263000000Y-130540000D03*
X265540000Y-128000000D03*
D13*
X263000000Y-128000000D03*
%TD*%
D12*
%TO.C,J2*%
X201000000Y-88540000D03*
D13*
X201000000Y-86000000D03*
%TD*%
D12*
%TO.C,J1*%
X162710000Y-162400000D03*
X165250000Y-162400000D03*
X162710000Y-164940000D03*
X165250000Y-164940000D03*
X162710000Y-167480000D03*
X165250000Y-167480000D03*
X162710000Y-170020000D03*
X165250000Y-170020000D03*
X162710000Y-172560000D03*
X165250000Y-172560000D03*
X162710000Y-175100000D03*
X165250000Y-175100000D03*
X162710000Y-177640000D03*
X165250000Y-177640000D03*
X162710000Y-180180000D03*
X165250000Y-180180000D03*
X162710000Y-182720000D03*
X165250000Y-182720000D03*
X162710000Y-185260000D03*
X165250000Y-185260000D03*
X162710000Y-187800000D03*
X165250000Y-187800000D03*
X162710000Y-190340000D03*
X165250000Y-190340000D03*
X162710000Y-192880000D03*
X165250000Y-192880000D03*
X162710000Y-195420000D03*
X165250000Y-195420000D03*
X162710000Y-197960000D03*
X165250000Y-197960000D03*
X162710000Y-200500000D03*
D13*
X165250000Y-200500000D03*
%TD*%
%TO.C,C14*%
G36*
G01*
X191512500Y-105825000D02*
X191987500Y-105825000D01*
G75*
G02*
X192225000Y-106062500I0J-237500D01*
G01*
X192225000Y-106662500D01*
G75*
G02*
X191987500Y-106900000I-237500J0D01*
G01*
X191512500Y-106900000D01*
G75*
G02*
X191275000Y-106662500I0J237500D01*
G01*
X191275000Y-106062500D01*
G75*
G02*
X191512500Y-105825000I237500J0D01*
G01*
G37*
G36*
G01*
X191512500Y-104100000D02*
X191987500Y-104100000D01*
G75*
G02*
X192225000Y-104337500I0J-237500D01*
G01*
X192225000Y-104937500D01*
G75*
G02*
X191987500Y-105175000I-237500J0D01*
G01*
X191512500Y-105175000D01*
G75*
G02*
X191275000Y-104937500I0J237500D01*
G01*
X191275000Y-104337500D01*
G75*
G02*
X191512500Y-104100000I237500J0D01*
G01*
G37*
%TD*%
%TO.C,C12*%
G36*
G01*
X172762500Y-99575000D02*
X173237500Y-99575000D01*
G75*
G02*
X173475000Y-99812500I0J-237500D01*
G01*
X173475000Y-100412500D01*
G75*
G02*
X173237500Y-100650000I-237500J0D01*
G01*
X172762500Y-100650000D01*
G75*
G02*
X172525000Y-100412500I0J237500D01*
G01*
X172525000Y-99812500D01*
G75*
G02*
X172762500Y-99575000I237500J0D01*
G01*
G37*
G36*
G01*
X172762500Y-97850000D02*
X173237500Y-97850000D01*
G75*
G02*
X173475000Y-98087500I0J-237500D01*
G01*
X173475000Y-98687500D01*
G75*
G02*
X173237500Y-98925000I-237500J0D01*
G01*
X172762500Y-98925000D01*
G75*
G02*
X172525000Y-98687500I0J237500D01*
G01*
X172525000Y-98087500D01*
G75*
G02*
X172762500Y-97850000I237500J0D01*
G01*
G37*
%TD*%
%TO.C,C11*%
G36*
G01*
X191512500Y-118825000D02*
X191987500Y-118825000D01*
G75*
G02*
X192225000Y-119062500I0J-237500D01*
G01*
X192225000Y-119662500D01*
G75*
G02*
X191987500Y-119900000I-237500J0D01*
G01*
X191512500Y-119900000D01*
G75*
G02*
X191275000Y-119662500I0J237500D01*
G01*
X191275000Y-119062500D01*
G75*
G02*
X191512500Y-118825000I237500J0D01*
G01*
G37*
G36*
G01*
X191512500Y-117100000D02*
X191987500Y-117100000D01*
G75*
G02*
X192225000Y-117337500I0J-237500D01*
G01*
X192225000Y-117937500D01*
G75*
G02*
X191987500Y-118175000I-237500J0D01*
G01*
X191512500Y-118175000D01*
G75*
G02*
X191275000Y-117937500I0J237500D01*
G01*
X191275000Y-117337500D01*
G75*
G02*
X191512500Y-117100000I237500J0D01*
G01*
G37*
%TD*%
%TO.C,C10*%
G36*
G01*
X178262500Y-116575000D02*
X178737500Y-116575000D01*
G75*
G02*
X178975000Y-116812500I0J-237500D01*
G01*
X178975000Y-117412500D01*
G75*
G02*
X178737500Y-117650000I-237500J0D01*
G01*
X178262500Y-117650000D01*
G75*
G02*
X178025000Y-117412500I0J237500D01*
G01*
X178025000Y-116812500D01*
G75*
G02*
X178262500Y-116575000I237500J0D01*
G01*
G37*
G36*
G01*
X178262500Y-114850000D02*
X178737500Y-114850000D01*
G75*
G02*
X178975000Y-115087500I0J-237500D01*
G01*
X178975000Y-115687500D01*
G75*
G02*
X178737500Y-115925000I-237500J0D01*
G01*
X178262500Y-115925000D01*
G75*
G02*
X178025000Y-115687500I0J237500D01*
G01*
X178025000Y-115087500D01*
G75*
G02*
X178262500Y-114850000I237500J0D01*
G01*
G37*
%TD*%
%TO.C,C8*%
G36*
G01*
X217987500Y-195925000D02*
X217512500Y-195925000D01*
G75*
G02*
X217275000Y-195687500I0J237500D01*
G01*
X217275000Y-195087500D01*
G75*
G02*
X217512500Y-194850000I237500J0D01*
G01*
X217987500Y-194850000D01*
G75*
G02*
X218225000Y-195087500I0J-237500D01*
G01*
X218225000Y-195687500D01*
G75*
G02*
X217987500Y-195925000I-237500J0D01*
G01*
G37*
G36*
G01*
X217987500Y-197650000D02*
X217512500Y-197650000D01*
G75*
G02*
X217275000Y-197412500I0J237500D01*
G01*
X217275000Y-196812500D01*
G75*
G02*
X217512500Y-196575000I237500J0D01*
G01*
X217987500Y-196575000D01*
G75*
G02*
X218225000Y-196812500I0J-237500D01*
G01*
X218225000Y-197412500D01*
G75*
G02*
X217987500Y-197650000I-237500J0D01*
G01*
G37*
%TD*%
%TO.C,C7*%
G36*
G01*
X191487500Y-196175000D02*
X191012500Y-196175000D01*
G75*
G02*
X190775000Y-195937500I0J237500D01*
G01*
X190775000Y-195337500D01*
G75*
G02*
X191012500Y-195100000I237500J0D01*
G01*
X191487500Y-195100000D01*
G75*
G02*
X191725000Y-195337500I0J-237500D01*
G01*
X191725000Y-195937500D01*
G75*
G02*
X191487500Y-196175000I-237500J0D01*
G01*
G37*
G36*
G01*
X191487500Y-197900000D02*
X191012500Y-197900000D01*
G75*
G02*
X190775000Y-197662500I0J237500D01*
G01*
X190775000Y-197062500D01*
G75*
G02*
X191012500Y-196825000I237500J0D01*
G01*
X191487500Y-196825000D01*
G75*
G02*
X191725000Y-197062500I0J-237500D01*
G01*
X191725000Y-197662500D01*
G75*
G02*
X191487500Y-197900000I-237500J0D01*
G01*
G37*
%TD*%
%TO.C,C5*%
G36*
G01*
X244512500Y-171825000D02*
X244987500Y-171825000D01*
G75*
G02*
X245225000Y-172062500I0J-237500D01*
G01*
X245225000Y-172662500D01*
G75*
G02*
X244987500Y-172900000I-237500J0D01*
G01*
X244512500Y-172900000D01*
G75*
G02*
X244275000Y-172662500I0J237500D01*
G01*
X244275000Y-172062500D01*
G75*
G02*
X244512500Y-171825000I237500J0D01*
G01*
G37*
G36*
G01*
X244512500Y-170100000D02*
X244987500Y-170100000D01*
G75*
G02*
X245225000Y-170337500I0J-237500D01*
G01*
X245225000Y-170937500D01*
G75*
G02*
X244987500Y-171175000I-237500J0D01*
G01*
X244512500Y-171175000D01*
G75*
G02*
X244275000Y-170937500I0J237500D01*
G01*
X244275000Y-170337500D01*
G75*
G02*
X244512500Y-170100000I237500J0D01*
G01*
G37*
%TD*%
%TO.C,C4*%
G36*
G01*
X227675000Y-83762500D02*
X227675000Y-84237500D01*
G75*
G02*
X227437500Y-84475000I-237500J0D01*
G01*
X226837500Y-84475000D01*
G75*
G02*
X226600000Y-84237500I0J237500D01*
G01*
X226600000Y-83762500D01*
G75*
G02*
X226837500Y-83525000I237500J0D01*
G01*
X227437500Y-83525000D01*
G75*
G02*
X227675000Y-83762500I0J-237500D01*
G01*
G37*
G36*
G01*
X229400000Y-83762500D02*
X229400000Y-84237500D01*
G75*
G02*
X229162500Y-84475000I-237500J0D01*
G01*
X228562500Y-84475000D01*
G75*
G02*
X228325000Y-84237500I0J237500D01*
G01*
X228325000Y-83762500D01*
G75*
G02*
X228562500Y-83525000I237500J0D01*
G01*
X229162500Y-83525000D01*
G75*
G02*
X229400000Y-83762500I0J-237500D01*
G01*
G37*
%TD*%
%TO.C,C3*%
G36*
G01*
X211262500Y-149575000D02*
X211737500Y-149575000D01*
G75*
G02*
X211975000Y-149812500I0J-237500D01*
G01*
X211975000Y-150412500D01*
G75*
G02*
X211737500Y-150650000I-237500J0D01*
G01*
X211262500Y-150650000D01*
G75*
G02*
X211025000Y-150412500I0J237500D01*
G01*
X211025000Y-149812500D01*
G75*
G02*
X211262500Y-149575000I237500J0D01*
G01*
G37*
G36*
G01*
X211262500Y-147850000D02*
X211737500Y-147850000D01*
G75*
G02*
X211975000Y-148087500I0J-237500D01*
G01*
X211975000Y-148687500D01*
G75*
G02*
X211737500Y-148925000I-237500J0D01*
G01*
X211262500Y-148925000D01*
G75*
G02*
X211025000Y-148687500I0J237500D01*
G01*
X211025000Y-148087500D01*
G75*
G02*
X211262500Y-147850000I237500J0D01*
G01*
G37*
%TD*%
M02*
