%TF.GenerationSoftware,KiCad,Pcbnew,(5.1.10)-1*%
%TF.CreationDate,2021-07-28T21:06:30+10:00*%
%TF.ProjectId,6502sbc,36353032-7362-4632-9e6b-696361645f70,rev?*%
%TF.SameCoordinates,Original*%
%TF.FileFunction,Soldermask,Top*%
%TF.FilePolarity,Negative*%
%FSLAX46Y46*%
G04 Gerber Fmt 4.6, Leading zero omitted, Abs format (unit mm)*
G04 Created by KiCad (PCBNEW (5.1.10)-1) date 2021-07-28 21:06:30*
%MOMM*%
%LPD*%
G01*
G04 APERTURE LIST*
%ADD10O,1.600000X1.600000*%
%ADD11R,1.600000X1.600000*%
%ADD12O,1.700000X1.700000*%
%ADD13R,1.700000X1.700000*%
%ADD14R,1.550000X1.300000*%
%ADD15C,1.700000*%
%ADD16O,2.000000X1.905000*%
%ADD17R,2.000000X1.905000*%
G04 APERTURE END LIST*
%TO.C,R23*%
G36*
G01*
X271799999Y-147900000D02*
X272700001Y-147900000D01*
G75*
G02*
X272950000Y-148149999I0J-249999D01*
G01*
X272950000Y-148850001D01*
G75*
G02*
X272700001Y-149100000I-249999J0D01*
G01*
X271799999Y-149100000D01*
G75*
G02*
X271550000Y-148850001I0J249999D01*
G01*
X271550000Y-148149999D01*
G75*
G02*
X271799999Y-147900000I249999J0D01*
G01*
G37*
G36*
G01*
X271799999Y-145900000D02*
X272700001Y-145900000D01*
G75*
G02*
X272950000Y-146149999I0J-249999D01*
G01*
X272950000Y-146850001D01*
G75*
G02*
X272700001Y-147100000I-249999J0D01*
G01*
X271799999Y-147100000D01*
G75*
G02*
X271550000Y-146850001I0J249999D01*
G01*
X271550000Y-146149999D01*
G75*
G02*
X271799999Y-145900000I249999J0D01*
G01*
G37*
%TD*%
%TO.C,R22*%
G36*
G01*
X271799999Y-157650000D02*
X272700001Y-157650000D01*
G75*
G02*
X272950000Y-157899999I0J-249999D01*
G01*
X272950000Y-158600001D01*
G75*
G02*
X272700001Y-158850000I-249999J0D01*
G01*
X271799999Y-158850000D01*
G75*
G02*
X271550000Y-158600001I0J249999D01*
G01*
X271550000Y-157899999D01*
G75*
G02*
X271799999Y-157650000I249999J0D01*
G01*
G37*
G36*
G01*
X271799999Y-155650000D02*
X272700001Y-155650000D01*
G75*
G02*
X272950000Y-155899999I0J-249999D01*
G01*
X272950000Y-156600001D01*
G75*
G02*
X272700001Y-156850000I-249999J0D01*
G01*
X271799999Y-156850000D01*
G75*
G02*
X271550000Y-156600001I0J249999D01*
G01*
X271550000Y-155899999D01*
G75*
G02*
X271799999Y-155650000I249999J0D01*
G01*
G37*
%TD*%
%TO.C,R21*%
G36*
G01*
X271799999Y-152900000D02*
X272700001Y-152900000D01*
G75*
G02*
X272950000Y-153149999I0J-249999D01*
G01*
X272950000Y-153850001D01*
G75*
G02*
X272700001Y-154100000I-249999J0D01*
G01*
X271799999Y-154100000D01*
G75*
G02*
X271550000Y-153850001I0J249999D01*
G01*
X271550000Y-153149999D01*
G75*
G02*
X271799999Y-152900000I249999J0D01*
G01*
G37*
G36*
G01*
X271799999Y-150900000D02*
X272700001Y-150900000D01*
G75*
G02*
X272950000Y-151149999I0J-249999D01*
G01*
X272950000Y-151850001D01*
G75*
G02*
X272700001Y-152100000I-249999J0D01*
G01*
X271799999Y-152100000D01*
G75*
G02*
X271550000Y-151850001I0J249999D01*
G01*
X271550000Y-151149999D01*
G75*
G02*
X271799999Y-150900000I249999J0D01*
G01*
G37*
%TD*%
%TO.C,U12*%
G36*
G01*
X193250000Y-103590000D02*
X193250000Y-103290000D01*
G75*
G02*
X193400000Y-103140000I150000J0D01*
G01*
X195050000Y-103140000D01*
G75*
G02*
X195200000Y-103290000I0J-150000D01*
G01*
X195200000Y-103590000D01*
G75*
G02*
X195050000Y-103740000I-150000J0D01*
G01*
X193400000Y-103740000D01*
G75*
G02*
X193250000Y-103590000I0J150000D01*
G01*
G37*
G36*
G01*
X193250000Y-104860000D02*
X193250000Y-104560000D01*
G75*
G02*
X193400000Y-104410000I150000J0D01*
G01*
X195050000Y-104410000D01*
G75*
G02*
X195200000Y-104560000I0J-150000D01*
G01*
X195200000Y-104860000D01*
G75*
G02*
X195050000Y-105010000I-150000J0D01*
G01*
X193400000Y-105010000D01*
G75*
G02*
X193250000Y-104860000I0J150000D01*
G01*
G37*
G36*
G01*
X193250000Y-106130000D02*
X193250000Y-105830000D01*
G75*
G02*
X193400000Y-105680000I150000J0D01*
G01*
X195050000Y-105680000D01*
G75*
G02*
X195200000Y-105830000I0J-150000D01*
G01*
X195200000Y-106130000D01*
G75*
G02*
X195050000Y-106280000I-150000J0D01*
G01*
X193400000Y-106280000D01*
G75*
G02*
X193250000Y-106130000I0J150000D01*
G01*
G37*
G36*
G01*
X193250000Y-107400000D02*
X193250000Y-107100000D01*
G75*
G02*
X193400000Y-106950000I150000J0D01*
G01*
X195050000Y-106950000D01*
G75*
G02*
X195200000Y-107100000I0J-150000D01*
G01*
X195200000Y-107400000D01*
G75*
G02*
X195050000Y-107550000I-150000J0D01*
G01*
X193400000Y-107550000D01*
G75*
G02*
X193250000Y-107400000I0J150000D01*
G01*
G37*
G36*
G01*
X193250000Y-108670000D02*
X193250000Y-108370000D01*
G75*
G02*
X193400000Y-108220000I150000J0D01*
G01*
X195050000Y-108220000D01*
G75*
G02*
X195200000Y-108370000I0J-150000D01*
G01*
X195200000Y-108670000D01*
G75*
G02*
X195050000Y-108820000I-150000J0D01*
G01*
X193400000Y-108820000D01*
G75*
G02*
X193250000Y-108670000I0J150000D01*
G01*
G37*
G36*
G01*
X193250000Y-109940000D02*
X193250000Y-109640000D01*
G75*
G02*
X193400000Y-109490000I150000J0D01*
G01*
X195050000Y-109490000D01*
G75*
G02*
X195200000Y-109640000I0J-150000D01*
G01*
X195200000Y-109940000D01*
G75*
G02*
X195050000Y-110090000I-150000J0D01*
G01*
X193400000Y-110090000D01*
G75*
G02*
X193250000Y-109940000I0J150000D01*
G01*
G37*
G36*
G01*
X193250000Y-111210000D02*
X193250000Y-110910000D01*
G75*
G02*
X193400000Y-110760000I150000J0D01*
G01*
X195050000Y-110760000D01*
G75*
G02*
X195200000Y-110910000I0J-150000D01*
G01*
X195200000Y-111210000D01*
G75*
G02*
X195050000Y-111360000I-150000J0D01*
G01*
X193400000Y-111360000D01*
G75*
G02*
X193250000Y-111210000I0J150000D01*
G01*
G37*
G36*
G01*
X188300000Y-111210000D02*
X188300000Y-110910000D01*
G75*
G02*
X188450000Y-110760000I150000J0D01*
G01*
X190100000Y-110760000D01*
G75*
G02*
X190250000Y-110910000I0J-150000D01*
G01*
X190250000Y-111210000D01*
G75*
G02*
X190100000Y-111360000I-150000J0D01*
G01*
X188450000Y-111360000D01*
G75*
G02*
X188300000Y-111210000I0J150000D01*
G01*
G37*
G36*
G01*
X188300000Y-109940000D02*
X188300000Y-109640000D01*
G75*
G02*
X188450000Y-109490000I150000J0D01*
G01*
X190100000Y-109490000D01*
G75*
G02*
X190250000Y-109640000I0J-150000D01*
G01*
X190250000Y-109940000D01*
G75*
G02*
X190100000Y-110090000I-150000J0D01*
G01*
X188450000Y-110090000D01*
G75*
G02*
X188300000Y-109940000I0J150000D01*
G01*
G37*
G36*
G01*
X188300000Y-108670000D02*
X188300000Y-108370000D01*
G75*
G02*
X188450000Y-108220000I150000J0D01*
G01*
X190100000Y-108220000D01*
G75*
G02*
X190250000Y-108370000I0J-150000D01*
G01*
X190250000Y-108670000D01*
G75*
G02*
X190100000Y-108820000I-150000J0D01*
G01*
X188450000Y-108820000D01*
G75*
G02*
X188300000Y-108670000I0J150000D01*
G01*
G37*
G36*
G01*
X188300000Y-107400000D02*
X188300000Y-107100000D01*
G75*
G02*
X188450000Y-106950000I150000J0D01*
G01*
X190100000Y-106950000D01*
G75*
G02*
X190250000Y-107100000I0J-150000D01*
G01*
X190250000Y-107400000D01*
G75*
G02*
X190100000Y-107550000I-150000J0D01*
G01*
X188450000Y-107550000D01*
G75*
G02*
X188300000Y-107400000I0J150000D01*
G01*
G37*
G36*
G01*
X188300000Y-106130000D02*
X188300000Y-105830000D01*
G75*
G02*
X188450000Y-105680000I150000J0D01*
G01*
X190100000Y-105680000D01*
G75*
G02*
X190250000Y-105830000I0J-150000D01*
G01*
X190250000Y-106130000D01*
G75*
G02*
X190100000Y-106280000I-150000J0D01*
G01*
X188450000Y-106280000D01*
G75*
G02*
X188300000Y-106130000I0J150000D01*
G01*
G37*
G36*
G01*
X188300000Y-104860000D02*
X188300000Y-104560000D01*
G75*
G02*
X188450000Y-104410000I150000J0D01*
G01*
X190100000Y-104410000D01*
G75*
G02*
X190250000Y-104560000I0J-150000D01*
G01*
X190250000Y-104860000D01*
G75*
G02*
X190100000Y-105010000I-150000J0D01*
G01*
X188450000Y-105010000D01*
G75*
G02*
X188300000Y-104860000I0J150000D01*
G01*
G37*
G36*
G01*
X188300000Y-103590000D02*
X188300000Y-103290000D01*
G75*
G02*
X188450000Y-103140000I150000J0D01*
G01*
X190100000Y-103140000D01*
G75*
G02*
X190250000Y-103290000I0J-150000D01*
G01*
X190250000Y-103590000D01*
G75*
G02*
X190100000Y-103740000I-150000J0D01*
G01*
X188450000Y-103740000D01*
G75*
G02*
X188300000Y-103590000I0J150000D01*
G01*
G37*
%TD*%
%TO.C,U11*%
G36*
G01*
X193250000Y-116340000D02*
X193250000Y-116040000D01*
G75*
G02*
X193400000Y-115890000I150000J0D01*
G01*
X195050000Y-115890000D01*
G75*
G02*
X195200000Y-116040000I0J-150000D01*
G01*
X195200000Y-116340000D01*
G75*
G02*
X195050000Y-116490000I-150000J0D01*
G01*
X193400000Y-116490000D01*
G75*
G02*
X193250000Y-116340000I0J150000D01*
G01*
G37*
G36*
G01*
X193250000Y-117610000D02*
X193250000Y-117310000D01*
G75*
G02*
X193400000Y-117160000I150000J0D01*
G01*
X195050000Y-117160000D01*
G75*
G02*
X195200000Y-117310000I0J-150000D01*
G01*
X195200000Y-117610000D01*
G75*
G02*
X195050000Y-117760000I-150000J0D01*
G01*
X193400000Y-117760000D01*
G75*
G02*
X193250000Y-117610000I0J150000D01*
G01*
G37*
G36*
G01*
X193250000Y-118880000D02*
X193250000Y-118580000D01*
G75*
G02*
X193400000Y-118430000I150000J0D01*
G01*
X195050000Y-118430000D01*
G75*
G02*
X195200000Y-118580000I0J-150000D01*
G01*
X195200000Y-118880000D01*
G75*
G02*
X195050000Y-119030000I-150000J0D01*
G01*
X193400000Y-119030000D01*
G75*
G02*
X193250000Y-118880000I0J150000D01*
G01*
G37*
G36*
G01*
X193250000Y-120150000D02*
X193250000Y-119850000D01*
G75*
G02*
X193400000Y-119700000I150000J0D01*
G01*
X195050000Y-119700000D01*
G75*
G02*
X195200000Y-119850000I0J-150000D01*
G01*
X195200000Y-120150000D01*
G75*
G02*
X195050000Y-120300000I-150000J0D01*
G01*
X193400000Y-120300000D01*
G75*
G02*
X193250000Y-120150000I0J150000D01*
G01*
G37*
G36*
G01*
X193250000Y-121420000D02*
X193250000Y-121120000D01*
G75*
G02*
X193400000Y-120970000I150000J0D01*
G01*
X195050000Y-120970000D01*
G75*
G02*
X195200000Y-121120000I0J-150000D01*
G01*
X195200000Y-121420000D01*
G75*
G02*
X195050000Y-121570000I-150000J0D01*
G01*
X193400000Y-121570000D01*
G75*
G02*
X193250000Y-121420000I0J150000D01*
G01*
G37*
G36*
G01*
X193250000Y-122690000D02*
X193250000Y-122390000D01*
G75*
G02*
X193400000Y-122240000I150000J0D01*
G01*
X195050000Y-122240000D01*
G75*
G02*
X195200000Y-122390000I0J-150000D01*
G01*
X195200000Y-122690000D01*
G75*
G02*
X195050000Y-122840000I-150000J0D01*
G01*
X193400000Y-122840000D01*
G75*
G02*
X193250000Y-122690000I0J150000D01*
G01*
G37*
G36*
G01*
X193250000Y-123960000D02*
X193250000Y-123660000D01*
G75*
G02*
X193400000Y-123510000I150000J0D01*
G01*
X195050000Y-123510000D01*
G75*
G02*
X195200000Y-123660000I0J-150000D01*
G01*
X195200000Y-123960000D01*
G75*
G02*
X195050000Y-124110000I-150000J0D01*
G01*
X193400000Y-124110000D01*
G75*
G02*
X193250000Y-123960000I0J150000D01*
G01*
G37*
G36*
G01*
X188300000Y-123960000D02*
X188300000Y-123660000D01*
G75*
G02*
X188450000Y-123510000I150000J0D01*
G01*
X190100000Y-123510000D01*
G75*
G02*
X190250000Y-123660000I0J-150000D01*
G01*
X190250000Y-123960000D01*
G75*
G02*
X190100000Y-124110000I-150000J0D01*
G01*
X188450000Y-124110000D01*
G75*
G02*
X188300000Y-123960000I0J150000D01*
G01*
G37*
G36*
G01*
X188300000Y-122690000D02*
X188300000Y-122390000D01*
G75*
G02*
X188450000Y-122240000I150000J0D01*
G01*
X190100000Y-122240000D01*
G75*
G02*
X190250000Y-122390000I0J-150000D01*
G01*
X190250000Y-122690000D01*
G75*
G02*
X190100000Y-122840000I-150000J0D01*
G01*
X188450000Y-122840000D01*
G75*
G02*
X188300000Y-122690000I0J150000D01*
G01*
G37*
G36*
G01*
X188300000Y-121420000D02*
X188300000Y-121120000D01*
G75*
G02*
X188450000Y-120970000I150000J0D01*
G01*
X190100000Y-120970000D01*
G75*
G02*
X190250000Y-121120000I0J-150000D01*
G01*
X190250000Y-121420000D01*
G75*
G02*
X190100000Y-121570000I-150000J0D01*
G01*
X188450000Y-121570000D01*
G75*
G02*
X188300000Y-121420000I0J150000D01*
G01*
G37*
G36*
G01*
X188300000Y-120150000D02*
X188300000Y-119850000D01*
G75*
G02*
X188450000Y-119700000I150000J0D01*
G01*
X190100000Y-119700000D01*
G75*
G02*
X190250000Y-119850000I0J-150000D01*
G01*
X190250000Y-120150000D01*
G75*
G02*
X190100000Y-120300000I-150000J0D01*
G01*
X188450000Y-120300000D01*
G75*
G02*
X188300000Y-120150000I0J150000D01*
G01*
G37*
G36*
G01*
X188300000Y-118880000D02*
X188300000Y-118580000D01*
G75*
G02*
X188450000Y-118430000I150000J0D01*
G01*
X190100000Y-118430000D01*
G75*
G02*
X190250000Y-118580000I0J-150000D01*
G01*
X190250000Y-118880000D01*
G75*
G02*
X190100000Y-119030000I-150000J0D01*
G01*
X188450000Y-119030000D01*
G75*
G02*
X188300000Y-118880000I0J150000D01*
G01*
G37*
G36*
G01*
X188300000Y-117610000D02*
X188300000Y-117310000D01*
G75*
G02*
X188450000Y-117160000I150000J0D01*
G01*
X190100000Y-117160000D01*
G75*
G02*
X190250000Y-117310000I0J-150000D01*
G01*
X190250000Y-117610000D01*
G75*
G02*
X190100000Y-117760000I-150000J0D01*
G01*
X188450000Y-117760000D01*
G75*
G02*
X188300000Y-117610000I0J150000D01*
G01*
G37*
G36*
G01*
X188300000Y-116340000D02*
X188300000Y-116040000D01*
G75*
G02*
X188450000Y-115890000I150000J0D01*
G01*
X190100000Y-115890000D01*
G75*
G02*
X190250000Y-116040000I0J-150000D01*
G01*
X190250000Y-116340000D01*
G75*
G02*
X190100000Y-116490000I-150000J0D01*
G01*
X188450000Y-116490000D01*
G75*
G02*
X188300000Y-116340000I0J150000D01*
G01*
G37*
%TD*%
%TO.C,U9*%
G36*
G01*
X174500000Y-116340000D02*
X174500000Y-116040000D01*
G75*
G02*
X174650000Y-115890000I150000J0D01*
G01*
X176300000Y-115890000D01*
G75*
G02*
X176450000Y-116040000I0J-150000D01*
G01*
X176450000Y-116340000D01*
G75*
G02*
X176300000Y-116490000I-150000J0D01*
G01*
X174650000Y-116490000D01*
G75*
G02*
X174500000Y-116340000I0J150000D01*
G01*
G37*
G36*
G01*
X174500000Y-117610000D02*
X174500000Y-117310000D01*
G75*
G02*
X174650000Y-117160000I150000J0D01*
G01*
X176300000Y-117160000D01*
G75*
G02*
X176450000Y-117310000I0J-150000D01*
G01*
X176450000Y-117610000D01*
G75*
G02*
X176300000Y-117760000I-150000J0D01*
G01*
X174650000Y-117760000D01*
G75*
G02*
X174500000Y-117610000I0J150000D01*
G01*
G37*
G36*
G01*
X174500000Y-118880000D02*
X174500000Y-118580000D01*
G75*
G02*
X174650000Y-118430000I150000J0D01*
G01*
X176300000Y-118430000D01*
G75*
G02*
X176450000Y-118580000I0J-150000D01*
G01*
X176450000Y-118880000D01*
G75*
G02*
X176300000Y-119030000I-150000J0D01*
G01*
X174650000Y-119030000D01*
G75*
G02*
X174500000Y-118880000I0J150000D01*
G01*
G37*
G36*
G01*
X174500000Y-120150000D02*
X174500000Y-119850000D01*
G75*
G02*
X174650000Y-119700000I150000J0D01*
G01*
X176300000Y-119700000D01*
G75*
G02*
X176450000Y-119850000I0J-150000D01*
G01*
X176450000Y-120150000D01*
G75*
G02*
X176300000Y-120300000I-150000J0D01*
G01*
X174650000Y-120300000D01*
G75*
G02*
X174500000Y-120150000I0J150000D01*
G01*
G37*
G36*
G01*
X174500000Y-121420000D02*
X174500000Y-121120000D01*
G75*
G02*
X174650000Y-120970000I150000J0D01*
G01*
X176300000Y-120970000D01*
G75*
G02*
X176450000Y-121120000I0J-150000D01*
G01*
X176450000Y-121420000D01*
G75*
G02*
X176300000Y-121570000I-150000J0D01*
G01*
X174650000Y-121570000D01*
G75*
G02*
X174500000Y-121420000I0J150000D01*
G01*
G37*
G36*
G01*
X174500000Y-122690000D02*
X174500000Y-122390000D01*
G75*
G02*
X174650000Y-122240000I150000J0D01*
G01*
X176300000Y-122240000D01*
G75*
G02*
X176450000Y-122390000I0J-150000D01*
G01*
X176450000Y-122690000D01*
G75*
G02*
X176300000Y-122840000I-150000J0D01*
G01*
X174650000Y-122840000D01*
G75*
G02*
X174500000Y-122690000I0J150000D01*
G01*
G37*
G36*
G01*
X174500000Y-123960000D02*
X174500000Y-123660000D01*
G75*
G02*
X174650000Y-123510000I150000J0D01*
G01*
X176300000Y-123510000D01*
G75*
G02*
X176450000Y-123660000I0J-150000D01*
G01*
X176450000Y-123960000D01*
G75*
G02*
X176300000Y-124110000I-150000J0D01*
G01*
X174650000Y-124110000D01*
G75*
G02*
X174500000Y-123960000I0J150000D01*
G01*
G37*
G36*
G01*
X169550000Y-123960000D02*
X169550000Y-123660000D01*
G75*
G02*
X169700000Y-123510000I150000J0D01*
G01*
X171350000Y-123510000D01*
G75*
G02*
X171500000Y-123660000I0J-150000D01*
G01*
X171500000Y-123960000D01*
G75*
G02*
X171350000Y-124110000I-150000J0D01*
G01*
X169700000Y-124110000D01*
G75*
G02*
X169550000Y-123960000I0J150000D01*
G01*
G37*
G36*
G01*
X169550000Y-122690000D02*
X169550000Y-122390000D01*
G75*
G02*
X169700000Y-122240000I150000J0D01*
G01*
X171350000Y-122240000D01*
G75*
G02*
X171500000Y-122390000I0J-150000D01*
G01*
X171500000Y-122690000D01*
G75*
G02*
X171350000Y-122840000I-150000J0D01*
G01*
X169700000Y-122840000D01*
G75*
G02*
X169550000Y-122690000I0J150000D01*
G01*
G37*
G36*
G01*
X169550000Y-121420000D02*
X169550000Y-121120000D01*
G75*
G02*
X169700000Y-120970000I150000J0D01*
G01*
X171350000Y-120970000D01*
G75*
G02*
X171500000Y-121120000I0J-150000D01*
G01*
X171500000Y-121420000D01*
G75*
G02*
X171350000Y-121570000I-150000J0D01*
G01*
X169700000Y-121570000D01*
G75*
G02*
X169550000Y-121420000I0J150000D01*
G01*
G37*
G36*
G01*
X169550000Y-120150000D02*
X169550000Y-119850000D01*
G75*
G02*
X169700000Y-119700000I150000J0D01*
G01*
X171350000Y-119700000D01*
G75*
G02*
X171500000Y-119850000I0J-150000D01*
G01*
X171500000Y-120150000D01*
G75*
G02*
X171350000Y-120300000I-150000J0D01*
G01*
X169700000Y-120300000D01*
G75*
G02*
X169550000Y-120150000I0J150000D01*
G01*
G37*
G36*
G01*
X169550000Y-118880000D02*
X169550000Y-118580000D01*
G75*
G02*
X169700000Y-118430000I150000J0D01*
G01*
X171350000Y-118430000D01*
G75*
G02*
X171500000Y-118580000I0J-150000D01*
G01*
X171500000Y-118880000D01*
G75*
G02*
X171350000Y-119030000I-150000J0D01*
G01*
X169700000Y-119030000D01*
G75*
G02*
X169550000Y-118880000I0J150000D01*
G01*
G37*
G36*
G01*
X169550000Y-117610000D02*
X169550000Y-117310000D01*
G75*
G02*
X169700000Y-117160000I150000J0D01*
G01*
X171350000Y-117160000D01*
G75*
G02*
X171500000Y-117310000I0J-150000D01*
G01*
X171500000Y-117610000D01*
G75*
G02*
X171350000Y-117760000I-150000J0D01*
G01*
X169700000Y-117760000D01*
G75*
G02*
X169550000Y-117610000I0J150000D01*
G01*
G37*
G36*
G01*
X169550000Y-116340000D02*
X169550000Y-116040000D01*
G75*
G02*
X169700000Y-115890000I150000J0D01*
G01*
X171350000Y-115890000D01*
G75*
G02*
X171500000Y-116040000I0J-150000D01*
G01*
X171500000Y-116340000D01*
G75*
G02*
X171350000Y-116490000I-150000J0D01*
G01*
X169700000Y-116490000D01*
G75*
G02*
X169550000Y-116340000I0J150000D01*
G01*
G37*
%TD*%
%TO.C,U6*%
G36*
G01*
X174500000Y-103590000D02*
X174500000Y-103290000D01*
G75*
G02*
X174650000Y-103140000I150000J0D01*
G01*
X176300000Y-103140000D01*
G75*
G02*
X176450000Y-103290000I0J-150000D01*
G01*
X176450000Y-103590000D01*
G75*
G02*
X176300000Y-103740000I-150000J0D01*
G01*
X174650000Y-103740000D01*
G75*
G02*
X174500000Y-103590000I0J150000D01*
G01*
G37*
G36*
G01*
X174500000Y-104860000D02*
X174500000Y-104560000D01*
G75*
G02*
X174650000Y-104410000I150000J0D01*
G01*
X176300000Y-104410000D01*
G75*
G02*
X176450000Y-104560000I0J-150000D01*
G01*
X176450000Y-104860000D01*
G75*
G02*
X176300000Y-105010000I-150000J0D01*
G01*
X174650000Y-105010000D01*
G75*
G02*
X174500000Y-104860000I0J150000D01*
G01*
G37*
G36*
G01*
X174500000Y-106130000D02*
X174500000Y-105830000D01*
G75*
G02*
X174650000Y-105680000I150000J0D01*
G01*
X176300000Y-105680000D01*
G75*
G02*
X176450000Y-105830000I0J-150000D01*
G01*
X176450000Y-106130000D01*
G75*
G02*
X176300000Y-106280000I-150000J0D01*
G01*
X174650000Y-106280000D01*
G75*
G02*
X174500000Y-106130000I0J150000D01*
G01*
G37*
G36*
G01*
X174500000Y-107400000D02*
X174500000Y-107100000D01*
G75*
G02*
X174650000Y-106950000I150000J0D01*
G01*
X176300000Y-106950000D01*
G75*
G02*
X176450000Y-107100000I0J-150000D01*
G01*
X176450000Y-107400000D01*
G75*
G02*
X176300000Y-107550000I-150000J0D01*
G01*
X174650000Y-107550000D01*
G75*
G02*
X174500000Y-107400000I0J150000D01*
G01*
G37*
G36*
G01*
X174500000Y-108670000D02*
X174500000Y-108370000D01*
G75*
G02*
X174650000Y-108220000I150000J0D01*
G01*
X176300000Y-108220000D01*
G75*
G02*
X176450000Y-108370000I0J-150000D01*
G01*
X176450000Y-108670000D01*
G75*
G02*
X176300000Y-108820000I-150000J0D01*
G01*
X174650000Y-108820000D01*
G75*
G02*
X174500000Y-108670000I0J150000D01*
G01*
G37*
G36*
G01*
X174500000Y-109940000D02*
X174500000Y-109640000D01*
G75*
G02*
X174650000Y-109490000I150000J0D01*
G01*
X176300000Y-109490000D01*
G75*
G02*
X176450000Y-109640000I0J-150000D01*
G01*
X176450000Y-109940000D01*
G75*
G02*
X176300000Y-110090000I-150000J0D01*
G01*
X174650000Y-110090000D01*
G75*
G02*
X174500000Y-109940000I0J150000D01*
G01*
G37*
G36*
G01*
X174500000Y-111210000D02*
X174500000Y-110910000D01*
G75*
G02*
X174650000Y-110760000I150000J0D01*
G01*
X176300000Y-110760000D01*
G75*
G02*
X176450000Y-110910000I0J-150000D01*
G01*
X176450000Y-111210000D01*
G75*
G02*
X176300000Y-111360000I-150000J0D01*
G01*
X174650000Y-111360000D01*
G75*
G02*
X174500000Y-111210000I0J150000D01*
G01*
G37*
G36*
G01*
X169550000Y-111210000D02*
X169550000Y-110910000D01*
G75*
G02*
X169700000Y-110760000I150000J0D01*
G01*
X171350000Y-110760000D01*
G75*
G02*
X171500000Y-110910000I0J-150000D01*
G01*
X171500000Y-111210000D01*
G75*
G02*
X171350000Y-111360000I-150000J0D01*
G01*
X169700000Y-111360000D01*
G75*
G02*
X169550000Y-111210000I0J150000D01*
G01*
G37*
G36*
G01*
X169550000Y-109940000D02*
X169550000Y-109640000D01*
G75*
G02*
X169700000Y-109490000I150000J0D01*
G01*
X171350000Y-109490000D01*
G75*
G02*
X171500000Y-109640000I0J-150000D01*
G01*
X171500000Y-109940000D01*
G75*
G02*
X171350000Y-110090000I-150000J0D01*
G01*
X169700000Y-110090000D01*
G75*
G02*
X169550000Y-109940000I0J150000D01*
G01*
G37*
G36*
G01*
X169550000Y-108670000D02*
X169550000Y-108370000D01*
G75*
G02*
X169700000Y-108220000I150000J0D01*
G01*
X171350000Y-108220000D01*
G75*
G02*
X171500000Y-108370000I0J-150000D01*
G01*
X171500000Y-108670000D01*
G75*
G02*
X171350000Y-108820000I-150000J0D01*
G01*
X169700000Y-108820000D01*
G75*
G02*
X169550000Y-108670000I0J150000D01*
G01*
G37*
G36*
G01*
X169550000Y-107400000D02*
X169550000Y-107100000D01*
G75*
G02*
X169700000Y-106950000I150000J0D01*
G01*
X171350000Y-106950000D01*
G75*
G02*
X171500000Y-107100000I0J-150000D01*
G01*
X171500000Y-107400000D01*
G75*
G02*
X171350000Y-107550000I-150000J0D01*
G01*
X169700000Y-107550000D01*
G75*
G02*
X169550000Y-107400000I0J150000D01*
G01*
G37*
G36*
G01*
X169550000Y-106130000D02*
X169550000Y-105830000D01*
G75*
G02*
X169700000Y-105680000I150000J0D01*
G01*
X171350000Y-105680000D01*
G75*
G02*
X171500000Y-105830000I0J-150000D01*
G01*
X171500000Y-106130000D01*
G75*
G02*
X171350000Y-106280000I-150000J0D01*
G01*
X169700000Y-106280000D01*
G75*
G02*
X169550000Y-106130000I0J150000D01*
G01*
G37*
G36*
G01*
X169550000Y-104860000D02*
X169550000Y-104560000D01*
G75*
G02*
X169700000Y-104410000I150000J0D01*
G01*
X171350000Y-104410000D01*
G75*
G02*
X171500000Y-104560000I0J-150000D01*
G01*
X171500000Y-104860000D01*
G75*
G02*
X171350000Y-105010000I-150000J0D01*
G01*
X169700000Y-105010000D01*
G75*
G02*
X169550000Y-104860000I0J150000D01*
G01*
G37*
G36*
G01*
X169550000Y-103590000D02*
X169550000Y-103290000D01*
G75*
G02*
X169700000Y-103140000I150000J0D01*
G01*
X171350000Y-103140000D01*
G75*
G02*
X171500000Y-103290000I0J-150000D01*
G01*
X171500000Y-103590000D01*
G75*
G02*
X171350000Y-103740000I-150000J0D01*
G01*
X169700000Y-103740000D01*
G75*
G02*
X169550000Y-103590000I0J150000D01*
G01*
G37*
%TD*%
%TO.C,U5*%
G36*
G01*
X184250000Y-92090000D02*
X184250000Y-91790000D01*
G75*
G02*
X184400000Y-91640000I150000J0D01*
G01*
X186050000Y-91640000D01*
G75*
G02*
X186200000Y-91790000I0J-150000D01*
G01*
X186200000Y-92090000D01*
G75*
G02*
X186050000Y-92240000I-150000J0D01*
G01*
X184400000Y-92240000D01*
G75*
G02*
X184250000Y-92090000I0J150000D01*
G01*
G37*
G36*
G01*
X184250000Y-93360000D02*
X184250000Y-93060000D01*
G75*
G02*
X184400000Y-92910000I150000J0D01*
G01*
X186050000Y-92910000D01*
G75*
G02*
X186200000Y-93060000I0J-150000D01*
G01*
X186200000Y-93360000D01*
G75*
G02*
X186050000Y-93510000I-150000J0D01*
G01*
X184400000Y-93510000D01*
G75*
G02*
X184250000Y-93360000I0J150000D01*
G01*
G37*
G36*
G01*
X184250000Y-94630000D02*
X184250000Y-94330000D01*
G75*
G02*
X184400000Y-94180000I150000J0D01*
G01*
X186050000Y-94180000D01*
G75*
G02*
X186200000Y-94330000I0J-150000D01*
G01*
X186200000Y-94630000D01*
G75*
G02*
X186050000Y-94780000I-150000J0D01*
G01*
X184400000Y-94780000D01*
G75*
G02*
X184250000Y-94630000I0J150000D01*
G01*
G37*
G36*
G01*
X184250000Y-95900000D02*
X184250000Y-95600000D01*
G75*
G02*
X184400000Y-95450000I150000J0D01*
G01*
X186050000Y-95450000D01*
G75*
G02*
X186200000Y-95600000I0J-150000D01*
G01*
X186200000Y-95900000D01*
G75*
G02*
X186050000Y-96050000I-150000J0D01*
G01*
X184400000Y-96050000D01*
G75*
G02*
X184250000Y-95900000I0J150000D01*
G01*
G37*
G36*
G01*
X184250000Y-97170000D02*
X184250000Y-96870000D01*
G75*
G02*
X184400000Y-96720000I150000J0D01*
G01*
X186050000Y-96720000D01*
G75*
G02*
X186200000Y-96870000I0J-150000D01*
G01*
X186200000Y-97170000D01*
G75*
G02*
X186050000Y-97320000I-150000J0D01*
G01*
X184400000Y-97320000D01*
G75*
G02*
X184250000Y-97170000I0J150000D01*
G01*
G37*
G36*
G01*
X184250000Y-98440000D02*
X184250000Y-98140000D01*
G75*
G02*
X184400000Y-97990000I150000J0D01*
G01*
X186050000Y-97990000D01*
G75*
G02*
X186200000Y-98140000I0J-150000D01*
G01*
X186200000Y-98440000D01*
G75*
G02*
X186050000Y-98590000I-150000J0D01*
G01*
X184400000Y-98590000D01*
G75*
G02*
X184250000Y-98440000I0J150000D01*
G01*
G37*
G36*
G01*
X184250000Y-99710000D02*
X184250000Y-99410000D01*
G75*
G02*
X184400000Y-99260000I150000J0D01*
G01*
X186050000Y-99260000D01*
G75*
G02*
X186200000Y-99410000I0J-150000D01*
G01*
X186200000Y-99710000D01*
G75*
G02*
X186050000Y-99860000I-150000J0D01*
G01*
X184400000Y-99860000D01*
G75*
G02*
X184250000Y-99710000I0J150000D01*
G01*
G37*
G36*
G01*
X179300000Y-99710000D02*
X179300000Y-99410000D01*
G75*
G02*
X179450000Y-99260000I150000J0D01*
G01*
X181100000Y-99260000D01*
G75*
G02*
X181250000Y-99410000I0J-150000D01*
G01*
X181250000Y-99710000D01*
G75*
G02*
X181100000Y-99860000I-150000J0D01*
G01*
X179450000Y-99860000D01*
G75*
G02*
X179300000Y-99710000I0J150000D01*
G01*
G37*
G36*
G01*
X179300000Y-98440000D02*
X179300000Y-98140000D01*
G75*
G02*
X179450000Y-97990000I150000J0D01*
G01*
X181100000Y-97990000D01*
G75*
G02*
X181250000Y-98140000I0J-150000D01*
G01*
X181250000Y-98440000D01*
G75*
G02*
X181100000Y-98590000I-150000J0D01*
G01*
X179450000Y-98590000D01*
G75*
G02*
X179300000Y-98440000I0J150000D01*
G01*
G37*
G36*
G01*
X179300000Y-97170000D02*
X179300000Y-96870000D01*
G75*
G02*
X179450000Y-96720000I150000J0D01*
G01*
X181100000Y-96720000D01*
G75*
G02*
X181250000Y-96870000I0J-150000D01*
G01*
X181250000Y-97170000D01*
G75*
G02*
X181100000Y-97320000I-150000J0D01*
G01*
X179450000Y-97320000D01*
G75*
G02*
X179300000Y-97170000I0J150000D01*
G01*
G37*
G36*
G01*
X179300000Y-95900000D02*
X179300000Y-95600000D01*
G75*
G02*
X179450000Y-95450000I150000J0D01*
G01*
X181100000Y-95450000D01*
G75*
G02*
X181250000Y-95600000I0J-150000D01*
G01*
X181250000Y-95900000D01*
G75*
G02*
X181100000Y-96050000I-150000J0D01*
G01*
X179450000Y-96050000D01*
G75*
G02*
X179300000Y-95900000I0J150000D01*
G01*
G37*
G36*
G01*
X179300000Y-94630000D02*
X179300000Y-94330000D01*
G75*
G02*
X179450000Y-94180000I150000J0D01*
G01*
X181100000Y-94180000D01*
G75*
G02*
X181250000Y-94330000I0J-150000D01*
G01*
X181250000Y-94630000D01*
G75*
G02*
X181100000Y-94780000I-150000J0D01*
G01*
X179450000Y-94780000D01*
G75*
G02*
X179300000Y-94630000I0J150000D01*
G01*
G37*
G36*
G01*
X179300000Y-93360000D02*
X179300000Y-93060000D01*
G75*
G02*
X179450000Y-92910000I150000J0D01*
G01*
X181100000Y-92910000D01*
G75*
G02*
X181250000Y-93060000I0J-150000D01*
G01*
X181250000Y-93360000D01*
G75*
G02*
X181100000Y-93510000I-150000J0D01*
G01*
X179450000Y-93510000D01*
G75*
G02*
X179300000Y-93360000I0J150000D01*
G01*
G37*
G36*
G01*
X179300000Y-92090000D02*
X179300000Y-91790000D01*
G75*
G02*
X179450000Y-91640000I150000J0D01*
G01*
X181100000Y-91640000D01*
G75*
G02*
X181250000Y-91790000I0J-150000D01*
G01*
X181250000Y-92090000D01*
G75*
G02*
X181100000Y-92240000I-150000J0D01*
G01*
X179450000Y-92240000D01*
G75*
G02*
X179300000Y-92090000I0J150000D01*
G01*
G37*
%TD*%
%TO.C,R20*%
G36*
G01*
X225049999Y-162400000D02*
X225950001Y-162400000D01*
G75*
G02*
X226200000Y-162649999I0J-249999D01*
G01*
X226200000Y-163350001D01*
G75*
G02*
X225950001Y-163600000I-249999J0D01*
G01*
X225049999Y-163600000D01*
G75*
G02*
X224800000Y-163350001I0J249999D01*
G01*
X224800000Y-162649999D01*
G75*
G02*
X225049999Y-162400000I249999J0D01*
G01*
G37*
G36*
G01*
X225049999Y-160400000D02*
X225950001Y-160400000D01*
G75*
G02*
X226200000Y-160649999I0J-249999D01*
G01*
X226200000Y-161350001D01*
G75*
G02*
X225950001Y-161600000I-249999J0D01*
G01*
X225049999Y-161600000D01*
G75*
G02*
X224800000Y-161350001I0J249999D01*
G01*
X224800000Y-160649999D01*
G75*
G02*
X225049999Y-160400000I249999J0D01*
G01*
G37*
%TD*%
%TO.C,C9*%
G36*
G01*
X227475000Y-153550000D02*
X226525000Y-153550000D01*
G75*
G02*
X226275000Y-153300000I0J250000D01*
G01*
X226275000Y-152625000D01*
G75*
G02*
X226525000Y-152375000I250000J0D01*
G01*
X227475000Y-152375000D01*
G75*
G02*
X227725000Y-152625000I0J-250000D01*
G01*
X227725000Y-153300000D01*
G75*
G02*
X227475000Y-153550000I-250000J0D01*
G01*
G37*
G36*
G01*
X227475000Y-155625000D02*
X226525000Y-155625000D01*
G75*
G02*
X226275000Y-155375000I0J250000D01*
G01*
X226275000Y-154700000D01*
G75*
G02*
X226525000Y-154450000I250000J0D01*
G01*
X227475000Y-154450000D01*
G75*
G02*
X227725000Y-154700000I0J-250000D01*
G01*
X227725000Y-155375000D01*
G75*
G02*
X227475000Y-155625000I-250000J0D01*
G01*
G37*
%TD*%
%TO.C,R19*%
G36*
G01*
X151799999Y-124650000D02*
X152700001Y-124650000D01*
G75*
G02*
X152950000Y-124899999I0J-249999D01*
G01*
X152950000Y-125600001D01*
G75*
G02*
X152700001Y-125850000I-249999J0D01*
G01*
X151799999Y-125850000D01*
G75*
G02*
X151550000Y-125600001I0J249999D01*
G01*
X151550000Y-124899999D01*
G75*
G02*
X151799999Y-124650000I249999J0D01*
G01*
G37*
G36*
G01*
X151799999Y-122650000D02*
X152700001Y-122650000D01*
G75*
G02*
X152950000Y-122899999I0J-249999D01*
G01*
X152950000Y-123600001D01*
G75*
G02*
X152700001Y-123850000I-249999J0D01*
G01*
X151799999Y-123850000D01*
G75*
G02*
X151550000Y-123600001I0J249999D01*
G01*
X151550000Y-122899999D01*
G75*
G02*
X151799999Y-122650000I249999J0D01*
G01*
G37*
%TD*%
D10*
%TO.C,U7*%
X194990000Y-165000000D03*
X179750000Y-198020000D03*
X194990000Y-167540000D03*
X179750000Y-195480000D03*
X194990000Y-170080000D03*
X179750000Y-192940000D03*
X194990000Y-172620000D03*
X179750000Y-190400000D03*
X194990000Y-175160000D03*
X179750000Y-187860000D03*
X194990000Y-177700000D03*
X179750000Y-185320000D03*
X194990000Y-180240000D03*
X179750000Y-182780000D03*
X194990000Y-182780000D03*
X179750000Y-180240000D03*
X194990000Y-185320000D03*
X179750000Y-177700000D03*
X194990000Y-187860000D03*
X179750000Y-175160000D03*
X194990000Y-190400000D03*
X179750000Y-172620000D03*
X194990000Y-192940000D03*
X179750000Y-170080000D03*
X194990000Y-195480000D03*
X179750000Y-167540000D03*
X194990000Y-198020000D03*
D11*
X179750000Y-165000000D03*
%TD*%
D10*
%TO.C,U8*%
X221240000Y-165000000D03*
X206000000Y-198020000D03*
X221240000Y-167540000D03*
X206000000Y-195480000D03*
X221240000Y-170080000D03*
X206000000Y-192940000D03*
X221240000Y-172620000D03*
X206000000Y-190400000D03*
X221240000Y-175160000D03*
X206000000Y-187860000D03*
X221240000Y-177700000D03*
X206000000Y-185320000D03*
X221240000Y-180240000D03*
X206000000Y-182780000D03*
X221240000Y-182780000D03*
X206000000Y-180240000D03*
X221240000Y-185320000D03*
X206000000Y-177700000D03*
X221240000Y-187860000D03*
X206000000Y-175160000D03*
X221240000Y-190400000D03*
X206000000Y-172620000D03*
X221240000Y-192940000D03*
X206000000Y-170080000D03*
X221240000Y-195480000D03*
X206000000Y-167540000D03*
X221240000Y-198020000D03*
D11*
X206000000Y-165000000D03*
%TD*%
D12*
%TO.C,J8*%
X175000000Y-85080000D03*
X175000000Y-82540000D03*
D13*
X175000000Y-80000000D03*
%TD*%
D12*
%TO.C,J7*%
X161000000Y-85080000D03*
X161000000Y-82540000D03*
D13*
X161000000Y-80000000D03*
%TD*%
D14*
%TO.C,SW2*%
X195225000Y-147500000D03*
X195225000Y-143000000D03*
X187275000Y-143000000D03*
X187275000Y-147500000D03*
%TD*%
%TO.C,SW1*%
X177975000Y-147500000D03*
X177975000Y-143000000D03*
X170025000Y-143000000D03*
X170025000Y-147500000D03*
%TD*%
D12*
%TO.C,J6*%
X265500000Y-177580000D03*
X265500000Y-175040000D03*
D13*
X265500000Y-172500000D03*
%TD*%
%TO.C,U10*%
G36*
G01*
X219625000Y-85435000D02*
X219625000Y-85135000D01*
G75*
G02*
X219775000Y-84985000I150000J0D01*
G01*
X221525000Y-84985000D01*
G75*
G02*
X221675000Y-85135000I0J-150000D01*
G01*
X221675000Y-85435000D01*
G75*
G02*
X221525000Y-85585000I-150000J0D01*
G01*
X219775000Y-85585000D01*
G75*
G02*
X219625000Y-85435000I0J150000D01*
G01*
G37*
G36*
G01*
X219625000Y-86705000D02*
X219625000Y-86405000D01*
G75*
G02*
X219775000Y-86255000I150000J0D01*
G01*
X221525000Y-86255000D01*
G75*
G02*
X221675000Y-86405000I0J-150000D01*
G01*
X221675000Y-86705000D01*
G75*
G02*
X221525000Y-86855000I-150000J0D01*
G01*
X219775000Y-86855000D01*
G75*
G02*
X219625000Y-86705000I0J150000D01*
G01*
G37*
G36*
G01*
X219625000Y-87975000D02*
X219625000Y-87675000D01*
G75*
G02*
X219775000Y-87525000I150000J0D01*
G01*
X221525000Y-87525000D01*
G75*
G02*
X221675000Y-87675000I0J-150000D01*
G01*
X221675000Y-87975000D01*
G75*
G02*
X221525000Y-88125000I-150000J0D01*
G01*
X219775000Y-88125000D01*
G75*
G02*
X219625000Y-87975000I0J150000D01*
G01*
G37*
G36*
G01*
X219625000Y-89245000D02*
X219625000Y-88945000D01*
G75*
G02*
X219775000Y-88795000I150000J0D01*
G01*
X221525000Y-88795000D01*
G75*
G02*
X221675000Y-88945000I0J-150000D01*
G01*
X221675000Y-89245000D01*
G75*
G02*
X221525000Y-89395000I-150000J0D01*
G01*
X219775000Y-89395000D01*
G75*
G02*
X219625000Y-89245000I0J150000D01*
G01*
G37*
G36*
G01*
X219625000Y-90515000D02*
X219625000Y-90215000D01*
G75*
G02*
X219775000Y-90065000I150000J0D01*
G01*
X221525000Y-90065000D01*
G75*
G02*
X221675000Y-90215000I0J-150000D01*
G01*
X221675000Y-90515000D01*
G75*
G02*
X221525000Y-90665000I-150000J0D01*
G01*
X219775000Y-90665000D01*
G75*
G02*
X219625000Y-90515000I0J150000D01*
G01*
G37*
G36*
G01*
X219625000Y-91785000D02*
X219625000Y-91485000D01*
G75*
G02*
X219775000Y-91335000I150000J0D01*
G01*
X221525000Y-91335000D01*
G75*
G02*
X221675000Y-91485000I0J-150000D01*
G01*
X221675000Y-91785000D01*
G75*
G02*
X221525000Y-91935000I-150000J0D01*
G01*
X219775000Y-91935000D01*
G75*
G02*
X219625000Y-91785000I0J150000D01*
G01*
G37*
G36*
G01*
X219625000Y-93055000D02*
X219625000Y-92755000D01*
G75*
G02*
X219775000Y-92605000I150000J0D01*
G01*
X221525000Y-92605000D01*
G75*
G02*
X221675000Y-92755000I0J-150000D01*
G01*
X221675000Y-93055000D01*
G75*
G02*
X221525000Y-93205000I-150000J0D01*
G01*
X219775000Y-93205000D01*
G75*
G02*
X219625000Y-93055000I0J150000D01*
G01*
G37*
G36*
G01*
X219625000Y-94325000D02*
X219625000Y-94025000D01*
G75*
G02*
X219775000Y-93875000I150000J0D01*
G01*
X221525000Y-93875000D01*
G75*
G02*
X221675000Y-94025000I0J-150000D01*
G01*
X221675000Y-94325000D01*
G75*
G02*
X221525000Y-94475000I-150000J0D01*
G01*
X219775000Y-94475000D01*
G75*
G02*
X219625000Y-94325000I0J150000D01*
G01*
G37*
G36*
G01*
X219625000Y-95595000D02*
X219625000Y-95295000D01*
G75*
G02*
X219775000Y-95145000I150000J0D01*
G01*
X221525000Y-95145000D01*
G75*
G02*
X221675000Y-95295000I0J-150000D01*
G01*
X221675000Y-95595000D01*
G75*
G02*
X221525000Y-95745000I-150000J0D01*
G01*
X219775000Y-95745000D01*
G75*
G02*
X219625000Y-95595000I0J150000D01*
G01*
G37*
G36*
G01*
X219625000Y-96865000D02*
X219625000Y-96565000D01*
G75*
G02*
X219775000Y-96415000I150000J0D01*
G01*
X221525000Y-96415000D01*
G75*
G02*
X221675000Y-96565000I0J-150000D01*
G01*
X221675000Y-96865000D01*
G75*
G02*
X221525000Y-97015000I-150000J0D01*
G01*
X219775000Y-97015000D01*
G75*
G02*
X219625000Y-96865000I0J150000D01*
G01*
G37*
G36*
G01*
X210325000Y-96865000D02*
X210325000Y-96565000D01*
G75*
G02*
X210475000Y-96415000I150000J0D01*
G01*
X212225000Y-96415000D01*
G75*
G02*
X212375000Y-96565000I0J-150000D01*
G01*
X212375000Y-96865000D01*
G75*
G02*
X212225000Y-97015000I-150000J0D01*
G01*
X210475000Y-97015000D01*
G75*
G02*
X210325000Y-96865000I0J150000D01*
G01*
G37*
G36*
G01*
X210325000Y-95595000D02*
X210325000Y-95295000D01*
G75*
G02*
X210475000Y-95145000I150000J0D01*
G01*
X212225000Y-95145000D01*
G75*
G02*
X212375000Y-95295000I0J-150000D01*
G01*
X212375000Y-95595000D01*
G75*
G02*
X212225000Y-95745000I-150000J0D01*
G01*
X210475000Y-95745000D01*
G75*
G02*
X210325000Y-95595000I0J150000D01*
G01*
G37*
G36*
G01*
X210325000Y-94325000D02*
X210325000Y-94025000D01*
G75*
G02*
X210475000Y-93875000I150000J0D01*
G01*
X212225000Y-93875000D01*
G75*
G02*
X212375000Y-94025000I0J-150000D01*
G01*
X212375000Y-94325000D01*
G75*
G02*
X212225000Y-94475000I-150000J0D01*
G01*
X210475000Y-94475000D01*
G75*
G02*
X210325000Y-94325000I0J150000D01*
G01*
G37*
G36*
G01*
X210325000Y-93055000D02*
X210325000Y-92755000D01*
G75*
G02*
X210475000Y-92605000I150000J0D01*
G01*
X212225000Y-92605000D01*
G75*
G02*
X212375000Y-92755000I0J-150000D01*
G01*
X212375000Y-93055000D01*
G75*
G02*
X212225000Y-93205000I-150000J0D01*
G01*
X210475000Y-93205000D01*
G75*
G02*
X210325000Y-93055000I0J150000D01*
G01*
G37*
G36*
G01*
X210325000Y-91785000D02*
X210325000Y-91485000D01*
G75*
G02*
X210475000Y-91335000I150000J0D01*
G01*
X212225000Y-91335000D01*
G75*
G02*
X212375000Y-91485000I0J-150000D01*
G01*
X212375000Y-91785000D01*
G75*
G02*
X212225000Y-91935000I-150000J0D01*
G01*
X210475000Y-91935000D01*
G75*
G02*
X210325000Y-91785000I0J150000D01*
G01*
G37*
G36*
G01*
X210325000Y-90515000D02*
X210325000Y-90215000D01*
G75*
G02*
X210475000Y-90065000I150000J0D01*
G01*
X212225000Y-90065000D01*
G75*
G02*
X212375000Y-90215000I0J-150000D01*
G01*
X212375000Y-90515000D01*
G75*
G02*
X212225000Y-90665000I-150000J0D01*
G01*
X210475000Y-90665000D01*
G75*
G02*
X210325000Y-90515000I0J150000D01*
G01*
G37*
G36*
G01*
X210325000Y-89245000D02*
X210325000Y-88945000D01*
G75*
G02*
X210475000Y-88795000I150000J0D01*
G01*
X212225000Y-88795000D01*
G75*
G02*
X212375000Y-88945000I0J-150000D01*
G01*
X212375000Y-89245000D01*
G75*
G02*
X212225000Y-89395000I-150000J0D01*
G01*
X210475000Y-89395000D01*
G75*
G02*
X210325000Y-89245000I0J150000D01*
G01*
G37*
G36*
G01*
X210325000Y-87975000D02*
X210325000Y-87675000D01*
G75*
G02*
X210475000Y-87525000I150000J0D01*
G01*
X212225000Y-87525000D01*
G75*
G02*
X212375000Y-87675000I0J-150000D01*
G01*
X212375000Y-87975000D01*
G75*
G02*
X212225000Y-88125000I-150000J0D01*
G01*
X210475000Y-88125000D01*
G75*
G02*
X210325000Y-87975000I0J150000D01*
G01*
G37*
G36*
G01*
X210325000Y-86705000D02*
X210325000Y-86405000D01*
G75*
G02*
X210475000Y-86255000I150000J0D01*
G01*
X212225000Y-86255000D01*
G75*
G02*
X212375000Y-86405000I0J-150000D01*
G01*
X212375000Y-86705000D01*
G75*
G02*
X212225000Y-86855000I-150000J0D01*
G01*
X210475000Y-86855000D01*
G75*
G02*
X210325000Y-86705000I0J150000D01*
G01*
G37*
G36*
G01*
X210325000Y-85435000D02*
X210325000Y-85135000D01*
G75*
G02*
X210475000Y-84985000I150000J0D01*
G01*
X212225000Y-84985000D01*
G75*
G02*
X212375000Y-85135000I0J-150000D01*
G01*
X212375000Y-85435000D01*
G75*
G02*
X212225000Y-85585000I-150000J0D01*
G01*
X210475000Y-85585000D01*
G75*
G02*
X210325000Y-85435000I0J150000D01*
G01*
G37*
%TD*%
D10*
%TO.C,U3*%
X247240000Y-84000000D03*
X232000000Y-132260000D03*
X247240000Y-86540000D03*
X232000000Y-129720000D03*
X247240000Y-89080000D03*
X232000000Y-127180000D03*
X247240000Y-91620000D03*
X232000000Y-124640000D03*
X247240000Y-94160000D03*
X232000000Y-122100000D03*
X247240000Y-96700000D03*
X232000000Y-119560000D03*
X247240000Y-99240000D03*
X232000000Y-117020000D03*
X247240000Y-101780000D03*
X232000000Y-114480000D03*
X247240000Y-104320000D03*
X232000000Y-111940000D03*
X247240000Y-106860000D03*
X232000000Y-109400000D03*
X247240000Y-109400000D03*
X232000000Y-106860000D03*
X247240000Y-111940000D03*
X232000000Y-104320000D03*
X247240000Y-114480000D03*
X232000000Y-101780000D03*
X247240000Y-117020000D03*
X232000000Y-99240000D03*
X247240000Y-119560000D03*
X232000000Y-96700000D03*
X247240000Y-122100000D03*
X232000000Y-94160000D03*
X247240000Y-124640000D03*
X232000000Y-91620000D03*
X247240000Y-127180000D03*
X232000000Y-89080000D03*
X247240000Y-129720000D03*
X232000000Y-86540000D03*
X247240000Y-132260000D03*
D11*
X232000000Y-84000000D03*
%TD*%
D15*
%TO.C,Y2*%
X230000000Y-157000000D03*
X230000000Y-162000000D03*
%TD*%
%TO.C,Y1*%
X159000000Y-119000000D03*
X159000000Y-124000000D03*
%TD*%
D10*
%TO.C,U4*%
X252240000Y-145000000D03*
X237000000Y-178020000D03*
X252240000Y-147540000D03*
X237000000Y-175480000D03*
X252240000Y-150080000D03*
X237000000Y-172940000D03*
X252240000Y-152620000D03*
X237000000Y-170400000D03*
X252240000Y-155160000D03*
X237000000Y-167860000D03*
X252240000Y-157700000D03*
X237000000Y-165320000D03*
X252240000Y-160240000D03*
X237000000Y-162780000D03*
X252240000Y-162780000D03*
X237000000Y-160240000D03*
X252240000Y-165320000D03*
X237000000Y-157700000D03*
X252240000Y-167860000D03*
X237000000Y-155160000D03*
X252240000Y-170400000D03*
X237000000Y-152620000D03*
X252240000Y-172940000D03*
X237000000Y-150080000D03*
X252240000Y-175480000D03*
X237000000Y-147540000D03*
X252240000Y-178020000D03*
D11*
X237000000Y-145000000D03*
%TD*%
D10*
%TO.C,U2*%
X221240000Y-108000000D03*
X206000000Y-156260000D03*
X221240000Y-110540000D03*
X206000000Y-153720000D03*
X221240000Y-113080000D03*
X206000000Y-151180000D03*
X221240000Y-115620000D03*
X206000000Y-148640000D03*
X221240000Y-118160000D03*
X206000000Y-146100000D03*
X221240000Y-120700000D03*
X206000000Y-143560000D03*
X221240000Y-123240000D03*
X206000000Y-141020000D03*
X221240000Y-125780000D03*
X206000000Y-138480000D03*
X221240000Y-128320000D03*
X206000000Y-135940000D03*
X221240000Y-130860000D03*
X206000000Y-133400000D03*
X221240000Y-133400000D03*
X206000000Y-130860000D03*
X221240000Y-135940000D03*
X206000000Y-128320000D03*
X221240000Y-138480000D03*
X206000000Y-125780000D03*
X221240000Y-141020000D03*
X206000000Y-123240000D03*
X221240000Y-143560000D03*
X206000000Y-120700000D03*
X221240000Y-146100000D03*
X206000000Y-118160000D03*
X221240000Y-148640000D03*
X206000000Y-115620000D03*
X221240000Y-151180000D03*
X206000000Y-113080000D03*
X221240000Y-153720000D03*
X206000000Y-110540000D03*
X221240000Y-156260000D03*
D11*
X206000000Y-108000000D03*
%TD*%
D16*
%TO.C,U1*%
X153750000Y-104080000D03*
X153750000Y-101540000D03*
D17*
X153750000Y-99000000D03*
%TD*%
%TO.C,R18*%
G36*
G01*
X190600000Y-134549999D02*
X190600000Y-135450001D01*
G75*
G02*
X190350001Y-135700000I-249999J0D01*
G01*
X189649999Y-135700000D01*
G75*
G02*
X189400000Y-135450001I0J249999D01*
G01*
X189400000Y-134549999D01*
G75*
G02*
X189649999Y-134300000I249999J0D01*
G01*
X190350001Y-134300000D01*
G75*
G02*
X190600000Y-134549999I0J-249999D01*
G01*
G37*
G36*
G01*
X192600000Y-134549999D02*
X192600000Y-135450001D01*
G75*
G02*
X192350001Y-135700000I-249999J0D01*
G01*
X191649999Y-135700000D01*
G75*
G02*
X191400000Y-135450001I0J249999D01*
G01*
X191400000Y-134549999D01*
G75*
G02*
X191649999Y-134300000I249999J0D01*
G01*
X192350001Y-134300000D01*
G75*
G02*
X192600000Y-134549999I0J-249999D01*
G01*
G37*
%TD*%
%TO.C,R17*%
G36*
G01*
X194450001Y-130600000D02*
X193549999Y-130600000D01*
G75*
G02*
X193300000Y-130350001I0J249999D01*
G01*
X193300000Y-129649999D01*
G75*
G02*
X193549999Y-129400000I249999J0D01*
G01*
X194450001Y-129400000D01*
G75*
G02*
X194700000Y-129649999I0J-249999D01*
G01*
X194700000Y-130350001D01*
G75*
G02*
X194450001Y-130600000I-249999J0D01*
G01*
G37*
G36*
G01*
X194450001Y-132600000D02*
X193549999Y-132600000D01*
G75*
G02*
X193300000Y-132350001I0J249999D01*
G01*
X193300000Y-131649999D01*
G75*
G02*
X193549999Y-131400000I249999J0D01*
G01*
X194450001Y-131400000D01*
G75*
G02*
X194700000Y-131649999I0J-249999D01*
G01*
X194700000Y-132350001D01*
G75*
G02*
X194450001Y-132600000I-249999J0D01*
G01*
G37*
%TD*%
%TO.C,R16*%
G36*
G01*
X260350000Y-86237500D02*
X260350000Y-85762500D01*
G75*
G02*
X260587500Y-85525000I237500J0D01*
G01*
X261162500Y-85525000D01*
G75*
G02*
X261400000Y-85762500I0J-237500D01*
G01*
X261400000Y-86237500D01*
G75*
G02*
X261162500Y-86475000I-237500J0D01*
G01*
X260587500Y-86475000D01*
G75*
G02*
X260350000Y-86237500I0J237500D01*
G01*
G37*
G36*
G01*
X258600000Y-86237500D02*
X258600000Y-85762500D01*
G75*
G02*
X258837500Y-85525000I237500J0D01*
G01*
X259412500Y-85525000D01*
G75*
G02*
X259650000Y-85762500I0J-237500D01*
G01*
X259650000Y-86237500D01*
G75*
G02*
X259412500Y-86475000I-237500J0D01*
G01*
X258837500Y-86475000D01*
G75*
G02*
X258600000Y-86237500I0J237500D01*
G01*
G37*
%TD*%
%TO.C,R15*%
G36*
G01*
X260350000Y-91237500D02*
X260350000Y-90762500D01*
G75*
G02*
X260587500Y-90525000I237500J0D01*
G01*
X261162500Y-90525000D01*
G75*
G02*
X261400000Y-90762500I0J-237500D01*
G01*
X261400000Y-91237500D01*
G75*
G02*
X261162500Y-91475000I-237500J0D01*
G01*
X260587500Y-91475000D01*
G75*
G02*
X260350000Y-91237500I0J237500D01*
G01*
G37*
G36*
G01*
X258600000Y-91237500D02*
X258600000Y-90762500D01*
G75*
G02*
X258837500Y-90525000I237500J0D01*
G01*
X259412500Y-90525000D01*
G75*
G02*
X259650000Y-90762500I0J-237500D01*
G01*
X259650000Y-91237500D01*
G75*
G02*
X259412500Y-91475000I-237500J0D01*
G01*
X258837500Y-91475000D01*
G75*
G02*
X258600000Y-91237500I0J237500D01*
G01*
G37*
%TD*%
%TO.C,R14*%
G36*
G01*
X260350000Y-96237500D02*
X260350000Y-95762500D01*
G75*
G02*
X260587500Y-95525000I237500J0D01*
G01*
X261162500Y-95525000D01*
G75*
G02*
X261400000Y-95762500I0J-237500D01*
G01*
X261400000Y-96237500D01*
G75*
G02*
X261162500Y-96475000I-237500J0D01*
G01*
X260587500Y-96475000D01*
G75*
G02*
X260350000Y-96237500I0J237500D01*
G01*
G37*
G36*
G01*
X258600000Y-96237500D02*
X258600000Y-95762500D01*
G75*
G02*
X258837500Y-95525000I237500J0D01*
G01*
X259412500Y-95525000D01*
G75*
G02*
X259650000Y-95762500I0J-237500D01*
G01*
X259650000Y-96237500D01*
G75*
G02*
X259412500Y-96475000I-237500J0D01*
G01*
X258837500Y-96475000D01*
G75*
G02*
X258600000Y-96237500I0J237500D01*
G01*
G37*
%TD*%
%TO.C,R13*%
G36*
G01*
X260350000Y-101237500D02*
X260350000Y-100762500D01*
G75*
G02*
X260587500Y-100525000I237500J0D01*
G01*
X261162500Y-100525000D01*
G75*
G02*
X261400000Y-100762500I0J-237500D01*
G01*
X261400000Y-101237500D01*
G75*
G02*
X261162500Y-101475000I-237500J0D01*
G01*
X260587500Y-101475000D01*
G75*
G02*
X260350000Y-101237500I0J237500D01*
G01*
G37*
G36*
G01*
X258600000Y-101237500D02*
X258600000Y-100762500D01*
G75*
G02*
X258837500Y-100525000I237500J0D01*
G01*
X259412500Y-100525000D01*
G75*
G02*
X259650000Y-100762500I0J-237500D01*
G01*
X259650000Y-101237500D01*
G75*
G02*
X259412500Y-101475000I-237500J0D01*
G01*
X258837500Y-101475000D01*
G75*
G02*
X258600000Y-101237500I0J237500D01*
G01*
G37*
%TD*%
%TO.C,R12*%
G36*
G01*
X260350000Y-106237500D02*
X260350000Y-105762500D01*
G75*
G02*
X260587500Y-105525000I237500J0D01*
G01*
X261162500Y-105525000D01*
G75*
G02*
X261400000Y-105762500I0J-237500D01*
G01*
X261400000Y-106237500D01*
G75*
G02*
X261162500Y-106475000I-237500J0D01*
G01*
X260587500Y-106475000D01*
G75*
G02*
X260350000Y-106237500I0J237500D01*
G01*
G37*
G36*
G01*
X258600000Y-106237500D02*
X258600000Y-105762500D01*
G75*
G02*
X258837500Y-105525000I237500J0D01*
G01*
X259412500Y-105525000D01*
G75*
G02*
X259650000Y-105762500I0J-237500D01*
G01*
X259650000Y-106237500D01*
G75*
G02*
X259412500Y-106475000I-237500J0D01*
G01*
X258837500Y-106475000D01*
G75*
G02*
X258600000Y-106237500I0J237500D01*
G01*
G37*
%TD*%
%TO.C,R11*%
G36*
G01*
X260350000Y-111237500D02*
X260350000Y-110762500D01*
G75*
G02*
X260587500Y-110525000I237500J0D01*
G01*
X261162500Y-110525000D01*
G75*
G02*
X261400000Y-110762500I0J-237500D01*
G01*
X261400000Y-111237500D01*
G75*
G02*
X261162500Y-111475000I-237500J0D01*
G01*
X260587500Y-111475000D01*
G75*
G02*
X260350000Y-111237500I0J237500D01*
G01*
G37*
G36*
G01*
X258600000Y-111237500D02*
X258600000Y-110762500D01*
G75*
G02*
X258837500Y-110525000I237500J0D01*
G01*
X259412500Y-110525000D01*
G75*
G02*
X259650000Y-110762500I0J-237500D01*
G01*
X259650000Y-111237500D01*
G75*
G02*
X259412500Y-111475000I-237500J0D01*
G01*
X258837500Y-111475000D01*
G75*
G02*
X258600000Y-111237500I0J237500D01*
G01*
G37*
%TD*%
%TO.C,R10*%
G36*
G01*
X260350000Y-116237500D02*
X260350000Y-115762500D01*
G75*
G02*
X260587500Y-115525000I237500J0D01*
G01*
X261162500Y-115525000D01*
G75*
G02*
X261400000Y-115762500I0J-237500D01*
G01*
X261400000Y-116237500D01*
G75*
G02*
X261162500Y-116475000I-237500J0D01*
G01*
X260587500Y-116475000D01*
G75*
G02*
X260350000Y-116237500I0J237500D01*
G01*
G37*
G36*
G01*
X258600000Y-116237500D02*
X258600000Y-115762500D01*
G75*
G02*
X258837500Y-115525000I237500J0D01*
G01*
X259412500Y-115525000D01*
G75*
G02*
X259650000Y-115762500I0J-237500D01*
G01*
X259650000Y-116237500D01*
G75*
G02*
X259412500Y-116475000I-237500J0D01*
G01*
X258837500Y-116475000D01*
G75*
G02*
X258600000Y-116237500I0J237500D01*
G01*
G37*
%TD*%
%TO.C,R9*%
G36*
G01*
X260350000Y-121237500D02*
X260350000Y-120762500D01*
G75*
G02*
X260587500Y-120525000I237500J0D01*
G01*
X261162500Y-120525000D01*
G75*
G02*
X261400000Y-120762500I0J-237500D01*
G01*
X261400000Y-121237500D01*
G75*
G02*
X261162500Y-121475000I-237500J0D01*
G01*
X260587500Y-121475000D01*
G75*
G02*
X260350000Y-121237500I0J237500D01*
G01*
G37*
G36*
G01*
X258600000Y-121237500D02*
X258600000Y-120762500D01*
G75*
G02*
X258837500Y-120525000I237500J0D01*
G01*
X259412500Y-120525000D01*
G75*
G02*
X259650000Y-120762500I0J-237500D01*
G01*
X259650000Y-121237500D01*
G75*
G02*
X259412500Y-121475000I-237500J0D01*
G01*
X258837500Y-121475000D01*
G75*
G02*
X258600000Y-121237500I0J237500D01*
G01*
G37*
%TD*%
%TO.C,R8*%
G36*
G01*
X200549999Y-80400000D02*
X201450001Y-80400000D01*
G75*
G02*
X201700000Y-80649999I0J-249999D01*
G01*
X201700000Y-81350001D01*
G75*
G02*
X201450001Y-81600000I-249999J0D01*
G01*
X200549999Y-81600000D01*
G75*
G02*
X200300000Y-81350001I0J249999D01*
G01*
X200300000Y-80649999D01*
G75*
G02*
X200549999Y-80400000I249999J0D01*
G01*
G37*
G36*
G01*
X200549999Y-78400000D02*
X201450001Y-78400000D01*
G75*
G02*
X201700000Y-78649999I0J-249999D01*
G01*
X201700000Y-79350001D01*
G75*
G02*
X201450001Y-79600000I-249999J0D01*
G01*
X200549999Y-79600000D01*
G75*
G02*
X200300000Y-79350001I0J249999D01*
G01*
X200300000Y-78649999D01*
G75*
G02*
X200549999Y-78400000I249999J0D01*
G01*
G37*
%TD*%
%TO.C,R5*%
G36*
G01*
X157450001Y-128600000D02*
X156549999Y-128600000D01*
G75*
G02*
X156300000Y-128350001I0J249999D01*
G01*
X156300000Y-127649999D01*
G75*
G02*
X156549999Y-127400000I249999J0D01*
G01*
X157450001Y-127400000D01*
G75*
G02*
X157700000Y-127649999I0J-249999D01*
G01*
X157700000Y-128350001D01*
G75*
G02*
X157450001Y-128600000I-249999J0D01*
G01*
G37*
G36*
G01*
X157450001Y-130600000D02*
X156549999Y-130600000D01*
G75*
G02*
X156300000Y-130350001I0J249999D01*
G01*
X156300000Y-129649999D01*
G75*
G02*
X156549999Y-129400000I249999J0D01*
G01*
X157450001Y-129400000D01*
G75*
G02*
X157700000Y-129649999I0J-249999D01*
G01*
X157700000Y-130350001D01*
G75*
G02*
X157450001Y-130600000I-249999J0D01*
G01*
G37*
%TD*%
%TO.C,R4*%
G36*
G01*
X162450001Y-128600000D02*
X161549999Y-128600000D01*
G75*
G02*
X161300000Y-128350001I0J249999D01*
G01*
X161300000Y-127649999D01*
G75*
G02*
X161549999Y-127400000I249999J0D01*
G01*
X162450001Y-127400000D01*
G75*
G02*
X162700000Y-127649999I0J-249999D01*
G01*
X162700000Y-128350001D01*
G75*
G02*
X162450001Y-128600000I-249999J0D01*
G01*
G37*
G36*
G01*
X162450001Y-130600000D02*
X161549999Y-130600000D01*
G75*
G02*
X161300000Y-130350001I0J249999D01*
G01*
X161300000Y-129649999D01*
G75*
G02*
X161549999Y-129400000I249999J0D01*
G01*
X162450001Y-129400000D01*
G75*
G02*
X162700000Y-129649999I0J-249999D01*
G01*
X162700000Y-130350001D01*
G75*
G02*
X162450001Y-130600000I-249999J0D01*
G01*
G37*
%TD*%
%TO.C,R3*%
G36*
G01*
X175600000Y-134799999D02*
X175600000Y-135700001D01*
G75*
G02*
X175350001Y-135950000I-249999J0D01*
G01*
X174649999Y-135950000D01*
G75*
G02*
X174400000Y-135700001I0J249999D01*
G01*
X174400000Y-134799999D01*
G75*
G02*
X174649999Y-134550000I249999J0D01*
G01*
X175350001Y-134550000D01*
G75*
G02*
X175600000Y-134799999I0J-249999D01*
G01*
G37*
G36*
G01*
X177600000Y-134799999D02*
X177600000Y-135700001D01*
G75*
G02*
X177350001Y-135950000I-249999J0D01*
G01*
X176649999Y-135950000D01*
G75*
G02*
X176400000Y-135700001I0J249999D01*
G01*
X176400000Y-134799999D01*
G75*
G02*
X176649999Y-134550000I249999J0D01*
G01*
X177350001Y-134550000D01*
G75*
G02*
X177600000Y-134799999I0J-249999D01*
G01*
G37*
%TD*%
%TO.C,R2*%
G36*
G01*
X179450001Y-130850000D02*
X178549999Y-130850000D01*
G75*
G02*
X178300000Y-130600001I0J249999D01*
G01*
X178300000Y-129899999D01*
G75*
G02*
X178549999Y-129650000I249999J0D01*
G01*
X179450001Y-129650000D01*
G75*
G02*
X179700000Y-129899999I0J-249999D01*
G01*
X179700000Y-130600001D01*
G75*
G02*
X179450001Y-130850000I-249999J0D01*
G01*
G37*
G36*
G01*
X179450001Y-132850000D02*
X178549999Y-132850000D01*
G75*
G02*
X178300000Y-132600001I0J249999D01*
G01*
X178300000Y-131899999D01*
G75*
G02*
X178549999Y-131650000I249999J0D01*
G01*
X179450001Y-131650000D01*
G75*
G02*
X179700000Y-131899999I0J-249999D01*
G01*
X179700000Y-132600001D01*
G75*
G02*
X179450001Y-132850000I-249999J0D01*
G01*
G37*
%TD*%
%TO.C,R1*%
G36*
G01*
X190450001Y-79600000D02*
X189549999Y-79600000D01*
G75*
G02*
X189300000Y-79350001I0J249999D01*
G01*
X189300000Y-78649999D01*
G75*
G02*
X189549999Y-78400000I249999J0D01*
G01*
X190450001Y-78400000D01*
G75*
G02*
X190700000Y-78649999I0J-249999D01*
G01*
X190700000Y-79350001D01*
G75*
G02*
X190450001Y-79600000I-249999J0D01*
G01*
G37*
G36*
G01*
X190450001Y-81600000D02*
X189549999Y-81600000D01*
G75*
G02*
X189300000Y-81350001I0J249999D01*
G01*
X189300000Y-80649999D01*
G75*
G02*
X189549999Y-80400000I249999J0D01*
G01*
X190450001Y-80400000D01*
G75*
G02*
X190700000Y-80649999I0J-249999D01*
G01*
X190700000Y-81350001D01*
G75*
G02*
X190450001Y-81600000I-249999J0D01*
G01*
G37*
%TD*%
D12*
%TO.C,J3*%
X265540000Y-166100000D03*
X263000000Y-166100000D03*
X265540000Y-163560000D03*
X263000000Y-163560000D03*
X265540000Y-161020000D03*
X263000000Y-161020000D03*
X265540000Y-158480000D03*
X263000000Y-158480000D03*
X265540000Y-155940000D03*
X263000000Y-155940000D03*
X265540000Y-153400000D03*
X263000000Y-153400000D03*
X265540000Y-150860000D03*
X263000000Y-150860000D03*
X265540000Y-148320000D03*
X263000000Y-148320000D03*
X265540000Y-145780000D03*
X263000000Y-145780000D03*
X265540000Y-143240000D03*
X263000000Y-143240000D03*
X265540000Y-140700000D03*
X263000000Y-140700000D03*
X265540000Y-138160000D03*
X263000000Y-138160000D03*
X265540000Y-135620000D03*
X263000000Y-135620000D03*
X265540000Y-133080000D03*
X263000000Y-133080000D03*
X265540000Y-130540000D03*
X263000000Y-130540000D03*
X265540000Y-128000000D03*
D13*
X263000000Y-128000000D03*
%TD*%
D12*
%TO.C,J2*%
X201000000Y-88540000D03*
D13*
X201000000Y-86000000D03*
%TD*%
D12*
%TO.C,J1*%
X162710000Y-162400000D03*
X165250000Y-162400000D03*
X162710000Y-164940000D03*
X165250000Y-164940000D03*
X162710000Y-167480000D03*
X165250000Y-167480000D03*
X162710000Y-170020000D03*
X165250000Y-170020000D03*
X162710000Y-172560000D03*
X165250000Y-172560000D03*
X162710000Y-175100000D03*
X165250000Y-175100000D03*
X162710000Y-177640000D03*
X165250000Y-177640000D03*
X162710000Y-180180000D03*
X165250000Y-180180000D03*
X162710000Y-182720000D03*
X165250000Y-182720000D03*
X162710000Y-185260000D03*
X165250000Y-185260000D03*
X162710000Y-187800000D03*
X165250000Y-187800000D03*
X162710000Y-190340000D03*
X165250000Y-190340000D03*
X162710000Y-192880000D03*
X165250000Y-192880000D03*
X162710000Y-195420000D03*
X165250000Y-195420000D03*
X162710000Y-197960000D03*
X165250000Y-197960000D03*
X162710000Y-200500000D03*
D13*
X165250000Y-200500000D03*
%TD*%
%TO.C,D9*%
G36*
G01*
X254550000Y-85549999D02*
X254550000Y-86450001D01*
G75*
G02*
X254300001Y-86700000I-249999J0D01*
G01*
X253649999Y-86700000D01*
G75*
G02*
X253400000Y-86450001I0J249999D01*
G01*
X253400000Y-85549999D01*
G75*
G02*
X253649999Y-85300000I249999J0D01*
G01*
X254300001Y-85300000D01*
G75*
G02*
X254550000Y-85549999I0J-249999D01*
G01*
G37*
G36*
G01*
X256600000Y-85549999D02*
X256600000Y-86450001D01*
G75*
G02*
X256350001Y-86700000I-249999J0D01*
G01*
X255699999Y-86700000D01*
G75*
G02*
X255450000Y-86450001I0J249999D01*
G01*
X255450000Y-85549999D01*
G75*
G02*
X255699999Y-85300000I249999J0D01*
G01*
X256350001Y-85300000D01*
G75*
G02*
X256600000Y-85549999I0J-249999D01*
G01*
G37*
%TD*%
%TO.C,D8*%
G36*
G01*
X254550000Y-90549999D02*
X254550000Y-91450001D01*
G75*
G02*
X254300001Y-91700000I-249999J0D01*
G01*
X253649999Y-91700000D01*
G75*
G02*
X253400000Y-91450001I0J249999D01*
G01*
X253400000Y-90549999D01*
G75*
G02*
X253649999Y-90300000I249999J0D01*
G01*
X254300001Y-90300000D01*
G75*
G02*
X254550000Y-90549999I0J-249999D01*
G01*
G37*
G36*
G01*
X256600000Y-90549999D02*
X256600000Y-91450001D01*
G75*
G02*
X256350001Y-91700000I-249999J0D01*
G01*
X255699999Y-91700000D01*
G75*
G02*
X255450000Y-91450001I0J249999D01*
G01*
X255450000Y-90549999D01*
G75*
G02*
X255699999Y-90300000I249999J0D01*
G01*
X256350001Y-90300000D01*
G75*
G02*
X256600000Y-90549999I0J-249999D01*
G01*
G37*
%TD*%
%TO.C,D7*%
G36*
G01*
X254550000Y-95549999D02*
X254550000Y-96450001D01*
G75*
G02*
X254300001Y-96700000I-249999J0D01*
G01*
X253649999Y-96700000D01*
G75*
G02*
X253400000Y-96450001I0J249999D01*
G01*
X253400000Y-95549999D01*
G75*
G02*
X253649999Y-95300000I249999J0D01*
G01*
X254300001Y-95300000D01*
G75*
G02*
X254550000Y-95549999I0J-249999D01*
G01*
G37*
G36*
G01*
X256600000Y-95549999D02*
X256600000Y-96450001D01*
G75*
G02*
X256350001Y-96700000I-249999J0D01*
G01*
X255699999Y-96700000D01*
G75*
G02*
X255450000Y-96450001I0J249999D01*
G01*
X255450000Y-95549999D01*
G75*
G02*
X255699999Y-95300000I249999J0D01*
G01*
X256350001Y-95300000D01*
G75*
G02*
X256600000Y-95549999I0J-249999D01*
G01*
G37*
%TD*%
%TO.C,D6*%
G36*
G01*
X254550000Y-100549999D02*
X254550000Y-101450001D01*
G75*
G02*
X254300001Y-101700000I-249999J0D01*
G01*
X253649999Y-101700000D01*
G75*
G02*
X253400000Y-101450001I0J249999D01*
G01*
X253400000Y-100549999D01*
G75*
G02*
X253649999Y-100300000I249999J0D01*
G01*
X254300001Y-100300000D01*
G75*
G02*
X254550000Y-100549999I0J-249999D01*
G01*
G37*
G36*
G01*
X256600000Y-100549999D02*
X256600000Y-101450001D01*
G75*
G02*
X256350001Y-101700000I-249999J0D01*
G01*
X255699999Y-101700000D01*
G75*
G02*
X255450000Y-101450001I0J249999D01*
G01*
X255450000Y-100549999D01*
G75*
G02*
X255699999Y-100300000I249999J0D01*
G01*
X256350001Y-100300000D01*
G75*
G02*
X256600000Y-100549999I0J-249999D01*
G01*
G37*
%TD*%
%TO.C,D5*%
G36*
G01*
X254550000Y-105549999D02*
X254550000Y-106450001D01*
G75*
G02*
X254300001Y-106700000I-249999J0D01*
G01*
X253649999Y-106700000D01*
G75*
G02*
X253400000Y-106450001I0J249999D01*
G01*
X253400000Y-105549999D01*
G75*
G02*
X253649999Y-105300000I249999J0D01*
G01*
X254300001Y-105300000D01*
G75*
G02*
X254550000Y-105549999I0J-249999D01*
G01*
G37*
G36*
G01*
X256600000Y-105549999D02*
X256600000Y-106450001D01*
G75*
G02*
X256350001Y-106700000I-249999J0D01*
G01*
X255699999Y-106700000D01*
G75*
G02*
X255450000Y-106450001I0J249999D01*
G01*
X255450000Y-105549999D01*
G75*
G02*
X255699999Y-105300000I249999J0D01*
G01*
X256350001Y-105300000D01*
G75*
G02*
X256600000Y-105549999I0J-249999D01*
G01*
G37*
%TD*%
%TO.C,D4*%
G36*
G01*
X254550000Y-110549999D02*
X254550000Y-111450001D01*
G75*
G02*
X254300001Y-111700000I-249999J0D01*
G01*
X253649999Y-111700000D01*
G75*
G02*
X253400000Y-111450001I0J249999D01*
G01*
X253400000Y-110549999D01*
G75*
G02*
X253649999Y-110300000I249999J0D01*
G01*
X254300001Y-110300000D01*
G75*
G02*
X254550000Y-110549999I0J-249999D01*
G01*
G37*
G36*
G01*
X256600000Y-110549999D02*
X256600000Y-111450001D01*
G75*
G02*
X256350001Y-111700000I-249999J0D01*
G01*
X255699999Y-111700000D01*
G75*
G02*
X255450000Y-111450001I0J249999D01*
G01*
X255450000Y-110549999D01*
G75*
G02*
X255699999Y-110300000I249999J0D01*
G01*
X256350001Y-110300000D01*
G75*
G02*
X256600000Y-110549999I0J-249999D01*
G01*
G37*
%TD*%
%TO.C,D3*%
G36*
G01*
X254550000Y-115549999D02*
X254550000Y-116450001D01*
G75*
G02*
X254300001Y-116700000I-249999J0D01*
G01*
X253649999Y-116700000D01*
G75*
G02*
X253400000Y-116450001I0J249999D01*
G01*
X253400000Y-115549999D01*
G75*
G02*
X253649999Y-115300000I249999J0D01*
G01*
X254300001Y-115300000D01*
G75*
G02*
X254550000Y-115549999I0J-249999D01*
G01*
G37*
G36*
G01*
X256600000Y-115549999D02*
X256600000Y-116450001D01*
G75*
G02*
X256350001Y-116700000I-249999J0D01*
G01*
X255699999Y-116700000D01*
G75*
G02*
X255450000Y-116450001I0J249999D01*
G01*
X255450000Y-115549999D01*
G75*
G02*
X255699999Y-115300000I249999J0D01*
G01*
X256350001Y-115300000D01*
G75*
G02*
X256600000Y-115549999I0J-249999D01*
G01*
G37*
%TD*%
%TO.C,D2*%
G36*
G01*
X254550000Y-120549999D02*
X254550000Y-121450001D01*
G75*
G02*
X254300001Y-121700000I-249999J0D01*
G01*
X253649999Y-121700000D01*
G75*
G02*
X253400000Y-121450001I0J249999D01*
G01*
X253400000Y-120549999D01*
G75*
G02*
X253649999Y-120300000I249999J0D01*
G01*
X254300001Y-120300000D01*
G75*
G02*
X254550000Y-120549999I0J-249999D01*
G01*
G37*
G36*
G01*
X256600000Y-120549999D02*
X256600000Y-121450001D01*
G75*
G02*
X256350001Y-121700000I-249999J0D01*
G01*
X255699999Y-121700000D01*
G75*
G02*
X255450000Y-121450001I0J249999D01*
G01*
X255450000Y-120549999D01*
G75*
G02*
X255699999Y-120300000I249999J0D01*
G01*
X256350001Y-120300000D01*
G75*
G02*
X256600000Y-120549999I0J-249999D01*
G01*
G37*
%TD*%
%TO.C,D1*%
G36*
G01*
X190450001Y-85550000D02*
X189549999Y-85550000D01*
G75*
G02*
X189300000Y-85300001I0J249999D01*
G01*
X189300000Y-84649999D01*
G75*
G02*
X189549999Y-84400000I249999J0D01*
G01*
X190450001Y-84400000D01*
G75*
G02*
X190700000Y-84649999I0J-249999D01*
G01*
X190700000Y-85300001D01*
G75*
G02*
X190450001Y-85550000I-249999J0D01*
G01*
G37*
G36*
G01*
X190450001Y-87600000D02*
X189549999Y-87600000D01*
G75*
G02*
X189300000Y-87350001I0J249999D01*
G01*
X189300000Y-86699999D01*
G75*
G02*
X189549999Y-86450000I249999J0D01*
G01*
X190450001Y-86450000D01*
G75*
G02*
X190700000Y-86699999I0J-249999D01*
G01*
X190700000Y-87350001D01*
G75*
G02*
X190450001Y-87600000I-249999J0D01*
G01*
G37*
%TD*%
%TO.C,C15*%
G36*
G01*
X186525000Y-131450000D02*
X187475000Y-131450000D01*
G75*
G02*
X187725000Y-131700000I0J-250000D01*
G01*
X187725000Y-132375000D01*
G75*
G02*
X187475000Y-132625000I-250000J0D01*
G01*
X186525000Y-132625000D01*
G75*
G02*
X186275000Y-132375000I0J250000D01*
G01*
X186275000Y-131700000D01*
G75*
G02*
X186525000Y-131450000I250000J0D01*
G01*
G37*
G36*
G01*
X186525000Y-129375000D02*
X187475000Y-129375000D01*
G75*
G02*
X187725000Y-129625000I0J-250000D01*
G01*
X187725000Y-130300000D01*
G75*
G02*
X187475000Y-130550000I-250000J0D01*
G01*
X186525000Y-130550000D01*
G75*
G02*
X186275000Y-130300000I0J250000D01*
G01*
X186275000Y-129625000D01*
G75*
G02*
X186525000Y-129375000I250000J0D01*
G01*
G37*
%TD*%
%TO.C,C6*%
G36*
G01*
X172525000Y-131700000D02*
X173475000Y-131700000D01*
G75*
G02*
X173725000Y-131950000I0J-250000D01*
G01*
X173725000Y-132625000D01*
G75*
G02*
X173475000Y-132875000I-250000J0D01*
G01*
X172525000Y-132875000D01*
G75*
G02*
X172275000Y-132625000I0J250000D01*
G01*
X172275000Y-131950000D01*
G75*
G02*
X172525000Y-131700000I250000J0D01*
G01*
G37*
G36*
G01*
X172525000Y-129625000D02*
X173475000Y-129625000D01*
G75*
G02*
X173725000Y-129875000I0J-250000D01*
G01*
X173725000Y-130550000D01*
G75*
G02*
X173475000Y-130800000I-250000J0D01*
G01*
X172525000Y-130800000D01*
G75*
G02*
X172275000Y-130550000I0J250000D01*
G01*
X172275000Y-129875000D01*
G75*
G02*
X172525000Y-129625000I250000J0D01*
G01*
G37*
%TD*%
%TO.C,C2*%
G36*
G01*
X162075000Y-104237500D02*
X162075000Y-103762500D01*
G75*
G02*
X162312500Y-103525000I237500J0D01*
G01*
X162912500Y-103525000D01*
G75*
G02*
X163150000Y-103762500I0J-237500D01*
G01*
X163150000Y-104237500D01*
G75*
G02*
X162912500Y-104475000I-237500J0D01*
G01*
X162312500Y-104475000D01*
G75*
G02*
X162075000Y-104237500I0J237500D01*
G01*
G37*
G36*
G01*
X160350000Y-104237500D02*
X160350000Y-103762500D01*
G75*
G02*
X160587500Y-103525000I237500J0D01*
G01*
X161187500Y-103525000D01*
G75*
G02*
X161425000Y-103762500I0J-237500D01*
G01*
X161425000Y-104237500D01*
G75*
G02*
X161187500Y-104475000I-237500J0D01*
G01*
X160587500Y-104475000D01*
G75*
G02*
X160350000Y-104237500I0J237500D01*
G01*
G37*
%TD*%
%TO.C,C1*%
G36*
G01*
X162200000Y-98475000D02*
X162200000Y-97525000D01*
G75*
G02*
X162450000Y-97275000I250000J0D01*
G01*
X163125000Y-97275000D01*
G75*
G02*
X163375000Y-97525000I0J-250000D01*
G01*
X163375000Y-98475000D01*
G75*
G02*
X163125000Y-98725000I-250000J0D01*
G01*
X162450000Y-98725000D01*
G75*
G02*
X162200000Y-98475000I0J250000D01*
G01*
G37*
G36*
G01*
X160125000Y-98475000D02*
X160125000Y-97525000D01*
G75*
G02*
X160375000Y-97275000I250000J0D01*
G01*
X161050000Y-97275000D01*
G75*
G02*
X161300000Y-97525000I0J-250000D01*
G01*
X161300000Y-98475000D01*
G75*
G02*
X161050000Y-98725000I-250000J0D01*
G01*
X160375000Y-98725000D01*
G75*
G02*
X160125000Y-98475000I0J250000D01*
G01*
G37*
%TD*%
M02*
